<mxfile host="app.diagrams.net" modified="2024-07-03T15:23:52.952Z" agent="Mozilla/5.0 (Windows NT 10.0; Win64; x64) AppleWebKit/537.36 (KHTML, like Gecko) Chrome/126.0.0.0 Safari/537.36" etag="N98UqzMNVU_VwK-XJWjO" version="24.6.4" type="device">
  <diagram name="Page-1" id="-KM13m4QECA1cBQUotdC">
    <mxGraphModel dx="1434" dy="1174" grid="0" gridSize="10" guides="1" tooltips="1" connect="1" arrows="1" fold="1" page="0" pageScale="1" pageWidth="827" pageHeight="1169" math="0" shadow="0">
      <root>
        <mxCell id="0" />
        <mxCell id="1" parent="0" />
        <mxCell id="ohZuWaNHun3vW7Tu6cD6-1" value="" style="verticalLabelPosition=bottom;aspect=fixed;html=1;shape=mxgraph.salesforce.data;" vertex="1" parent="1">
          <mxGeometry x="-174" y="42" width="47" height="58.02" as="geometry" />
        </mxCell>
        <mxCell id="ohZuWaNHun3vW7Tu6cD6-2" value="" style="endArrow=classic;html=1;rounded=0;fontSize=12;startSize=8;endSize=8;curved=1;" edge="1" parent="1">
          <mxGeometry width="50" height="50" relative="1" as="geometry">
            <mxPoint x="-123" y="72" as="sourcePoint" />
            <mxPoint x="-25" y="72" as="targetPoint" />
          </mxGeometry>
        </mxCell>
        <mxCell id="ohZuWaNHun3vW7Tu6cD6-3" value="" style="shape=image;verticalLabelPosition=bottom;labelBackgroundColor=default;verticalAlign=top;aspect=fixed;imageAspect=0;image=data:image/jpeg,/9j/4AAQSkZJRgABAQAAAQABAAD/2wCEAAkGBw0QDhEODg8PDRANEA8QDQ0QEhAVEA0RFREXFhURFRMYKCgsGBolGxMWITIhJzU3Ly4uGB81ODMsNygtLisBCgoKDg0OGhAQGzAlHSMtKy0rLS4vKy0rLSsrKzctKystLy0tKystLS0rLS0tKy0tLS0rLSsrKy0rLS0tLS0tLf/AABEIALEBHAMBEQACEQEDEQH/xAAbAAEBAAMBAQEAAAAAAAAAAAAAAQUGBwQDAv/EAEoQAAIBAgEFCA0KBAYDAAAAAAABAgMRBAUhMVGRBgcSQVJhcdETFBUWIjJUcoGToaKxIzNTdJKys8HS4TQ1QoRDYoKDo8IXJET/xAAaAQEAAwEBAQAAAAAAAAAAAAAAAQQFAwYC/8QANhEBAAECAgUKBgEFAQEAAAAAAAECAwQREhQhMVEFEzJScYGRobHRFTNBYXLBIiNC4fDxNCT/2gAMAwEAAhEDEQA/AO4gAAAAAAAAAAAAAAYrLW6HCYNfL1PDavGjDwqkv9PEud2R1t2a7nRhyuXqLe+Wl5R3x6zusNQhTXFKq3KT/wBMbJbWXKMFT/dKnXjav7YYHE7sMpz04mUVqhGEbelK53jDWo+jjOIuz9XgqZZxsvGxeJf+9VtsufcW6I+keDnzlc/WfGXyeUcT5RX9bU6ydCnhBp1cZ8X6jlbFrRisTHorVV+ZHN0cI8E6dfGfGXrobqspQ8XF1n57U/vpnxNi3P8Aa+4v3I+rNYDfGxsLKtTpYiPHmdOb9KuvYcasHRO7Y604uuN8ZtwyHu0wOKahwnh6rzKnVsuE9UZ6H0aeYqXMPXRt3wt28RRXs3S2Q4O4AAAAAAAAAAAAAAAAAAAAAAAAAAAABru7XdC8FQSp27PXvGlfOoJeNUa47XWbW1zljDWecq27oV8Re5unZvlyKtVlOUpzk5zm7ynJ3lJ62zXiIiMoZUznOcslg9zeUK0FUpYapKDV4ybhHhLWlJq650cqr9umcpl0ps3KoziGNxOHqU5unVhKnOPjQmmpL0M+4mJjOHOYmJyl8SQAhCQCEJRgb/uA3XTVSOCxU3OM7Rw9WT8KEuKnJ8afE+J5uNWpYmxGWnT3ruHvzno1dzpJQXgAAAAAAAAAAAAAAAAAAAAAAAAAAAHL99KT7cpK+ZYeLS1N1J3+C2GnguhPazcb047GF3H4OnXyhQpVUpQcpSlF6J8CEpqPOrxWbVc7YiqabczDjYpiq5ES7UYzYaTvpYKm8NTxFkqlOqoKXHKEk7x586T26y5g6p0pp+injKY0Yq+rmBpM5CEgEISgEISKTWdNprOmtKa0NAd/yXiXVw9Gs8zq0qdRrU5QT/MxqoyqmGxTOdMS9R8voAAAAAAAAAAAAAAAAAAAAAAAAAADl2+n/G0vq0PxKhp4LoT2s3GdOOxqeBxdSjVhWpvgzpSUoviuuJ8zWb0lqqmKomJVaappmJh0zBb4mClTTrRq0aiXhQUeHFv/ACyXF02M2rB1xOza0acZRMbdjT92O6l46UYQi6dCk3KMZW4c5Wtw5W0WTaS53rzW7Fjm9s71W/f5zZG5rR3cACEJQCEJAIB3rc7/AAOF+rYf8KJj3OnPbLXt9COxkD4fYAAAAAAAAAAAAAAAAAAAAAAAAAAHLN9SSWNpXf8A80fxahp4LoT2szG9OOxpnDWtbS2qZwnDWtbRknOE4a1raDODhrWtpBnBwlrQSEJQhIBAIyEu97nf4HC/VsP+FEyLnTntlrW+hHYyB8PsAAAAAAAAAAAAAAAAAAAAAAAY7GZewNF8GriaMJLTDhpyXTFZzpTarq3Q51XaKdky8vfdkzyqn73UfWr3eD51i31jvuyZ5VT97qGr3OBrFvi/Et1WSnneJovpT6hzF3gc/a4p30ZI8oo/ZfUTzF3hJz1rjB30ZI8oofZfUOYu8JOetcYO+jJHlFD7L6hzN3hJz1rjCd9GSPKKH2X1Eczd4Sc9a4ww+6/L+TauAr06NalOpNQ4EYp3dqkW7ZtSZ1s2rkVxMw5XrtuaJiJcuNBQAIAISjA7xkGajgMNJ6I4Wg36qJiYm5FvTrq3RnLYs06UUxH2fXupS1T2LrMr4zh+E+Ee61qtf2O6tLVPYusfGcPwnwj3NVr+z7UcbSnmUs+p5mWrGPsXpypq28J2OddmunfD0FxyAAAAAAAAAAAAAAAAAD4Y7GUqFKVarJQhTV5SfwtxvisfVNM1TlD5qqimM5co3SbsMTipOFNyw9DQqcXac1rqSXwWbp0mpZw1NG2dssy7iaq9kbIa0WVZCACUAhCQCEJQCEJAIAISgEYHdclfyyh9To/hRPPcpfJu9ktrDb6O5jzw7YQJQDJ5Nx7uqc3e+aMnpvqZvcm8pTnFq7PZP6n9KeIsbNKllj0KiAAAAAAAAAAAAAAAAOXb5GW3VxHakH8nh38pbROq1/1Tt0uRp4S1o06c759Gbi7ulVoxuj1aaXFNCACUAhCQCEJQCEJAIAISgEAjA7tkn+WUPqdH8KJ53lL5N3sltYbfR3MceIbKAAlCBsOTsR2Smm9K8GXSuM9lyfiefsRVO+Nk9se+9lX7ehXl9HpLziAAAAAAAAAAAAAA8+PxUaNGpWloo051HzqMW7ew+qadKqI4vmqrRiZn6OD1qspylObvKcpSm9cpO7e1m5EZRlDEmc9svmEASgEISAQhKAQhIBABCUAgECSzeZJtvMktLfEiB36NDsWDjS+iowp7IqJ5zlGr/wCe5P2nzbeHjKumGFPFNcCUIECWSyHUtOUOUrrpT/f2G3yJdyuVW+MZ+H/fJTxlP8YqZk9KzwAAAAAAAAAAAAAGu74FdwybWtpn2OHolUjf2XLGFjO7CvipytS46azJAlAIQkAhCUAhCQCACEoBAIEhA2/e63OyxGIjiqkbUMNJSTeirVWeMVrSed9CXHmrYi7o06Mb5WMPa0qtKd0OnZZq2gocc37Fn+Njy3LN6KbMW/rVPlH+cm1hKM6tLgwx5looQIEoB6slytWhz3W1Mv8AJlWjiqPvnHk44mM7ctiPYskAAAAAAAAAAAAABqG+hO2AiuViKa92b/It4OP6ncq4yf6fe5UabMQCEJAIQlAPthMHWrS4NGlUrSWlU4Sk1020HzVVFO+X1TTNW6GWhuNyq1dYSfpnRXscjlrFvj6unMXOHo/XeVlbySXrcP8AqGsW+PqnmLnD0O8rK3kkvW4f9Q1i3x9TmLnD0TvJyt5JL1uH/URrFvj6nMXOHoneTlfySXrcP+oaxb4+pzFzh6HeTlfySXrcP+oaxb4+qeYucPR9cPuCyrJ2dCNLnnVp291s+ZxNuPqmMPcn6NmyLvaU4tTxtXstv8GleMHzObztdFjhXipnow70YWI6Ut5+RoU1GKjThBcGFOKSSS4opGdiMTRZp07k+8rtu3NU6NMMHiq7qScn6FqWo8dicRViLk11d32hq27cUU5Q+JWdECUAgS+2CfytPz4/Es4OcsRb/KPVzux/Tq7Gznt2MAAAAAAAAAAAAAA0/fSjfAQfJxFN+5NfmW8H8zuVcZ8vvcqNNmIQkAhCUA3DcRuP7b/9jEXjh02oQV08Q08+fiinmus7d9FiriMRofxp3rVixp/yq3OoUaVDD01CEYUacfFhFJL0JcZk38RRbjTuVZNKi3nsph56mU4/0xb527GRd5boj5dMz27PdZpws/WXy7qS5MdrK/xu51I833qscTupLkx9o+N3OrHmarTxTurPkx2sj43c6seadVp4ndWfJj7R8budSPM1SnindafJj7R8budSPM1Snid1p8mO1j43c6keadUp4vnPKlV6ODHnSz+0418s4irZGUd3v7PqMLRG946lSUneTcnrZm3LldyrSrnOVimmKYyh+D4fSEJQCBKAfbBr5Wn58fiWMHGeIt/lHq+Lvy6uyW0HuGKAAAAAAAAAAAAAA1jfHpcLJtV/Rzoy/wCRRf3izhZyuwr4qM7c9zkBqMsAhCUA9OS8FLEYilh45nWqRhfkpvwpehXfoPmurRpmX1RTpVRDu0IU8PRjCEVGFKMYQgtSVkjz+KxEWaJuVf8AZbVu3nMUwxFarKb4Unf4LmR42/frvV6dc7fTsadFEUxlD5nF9oACUCUAhCUAAQJQhKAQJQAQl6cmRvWhzNvYmy9ybTpYqj/d0OOInK1LZT2bHAAAAAAAAAAAAAAeDL+DdfCV6KzyqUqih5/B8H22Pu3Vo1xL4uU6VEw4OmbTGCEoBCEto3taKllKDf8Ah06s108HgfCbK+KnK2sYaM7jp+V5+LHpb+C/M8by3cn+FHbP6j9t3CxvljjAXEAgSgSgEISgACBKEJQCBKACEoBksg071JT5Mbelv9mbXIlrO7VXwjLx/wCKeNqypinizp6dmgAAAAAAAAAAAAAAHFN2eSnhcdVglanVbq0dXBm7teiV16Ea9i5p0RLJv0aFcsEdXJCEgG271/8AMf7er96BWxfy+9ZwvzO50bK/jrzV8WeH5a+fT+P7lv4Xoz2vCY6ygSgECUISgACBKEJQCBIBCEoBAlsuTMN2Omk/Gl4Uul8Ww9lydhuYsRE752z/AL9oY+IuadecbnrL7gAAAAAAAAAAAAAAAYDdjueWOw/BjaNaleVCb0XemDep2XpSfEdrF3m6vs437XOU/dxrE0KlOcqVSMqc4O04SVnFmrExMZwy5iYnKXyAgG271/8AMf7er96BWxXy+9ZwvzO50bK/jrzV8WeH5a+fT+P7lv4Xoz2vCY60gECUISgACBKECBIEvyAISgECWYyXk13VSorWzwg9N9b6j0HJnJkxMXb0dkfuf1ChicTGWhR3yzB6FngAAAAAAAAAAAAAAAABicu7ncJjVavDw0rQrQfBqQ6Jca5ndHS3dqo3Ody1TXvafiN7B3+Sxfg8SnSvJelNX2FqMZxhWnB8JfL/AMYVvK6fqpfqGuRwRqk8WY3J7iqmCxPbEsRCquxzhwFBxfhOLve75JzvYiLlOWTpaw80VaWbOZY+cXmr4s8fy18+n8f3LZwvQnteAx1lAkISgH1wdFTqKDuk751pzK5awVim/ei3VOyc93Y53a5oomqGS7kU+VP3eo3PglnrVeXsqa3Xwg7kU+VP3eoj4HZ61Xl7GuV8IO49PlT93qHwOz1qvL2Ncr4Qncenyp+71D4HZ61Xl7GuV8IO41PlT2x6h8Ds9ary9jXK+EHcanyp7Y9Q+B2etV5eyddr4QncWlyp+71D4HZ61Xl7Gu18IFkWlyp7Y9QjkOx1qvL2Ndr4Q9WHwNKnnjFX5Tzv26C/YwNixOdFO3jO2XCu/XXvl6S25AAAAAAAAAAAAAAAAAAAAAAADD5Y+cXmr4s8xy18+n8f3K/hehPa8BkLQQIEoBYTcXeLaetaT6ouVUTpUzlJNMTGUv323V+kntZ313EdefF8czRwg7bq/ST2sa7iOvPinmbfCE7cq/ST2sa7iOvPiczb4Qnblb6Se1jXcR158U8zb6sJ25W+kntZGu4jrz4nM2+rDY8K26cG87cItvXmPYYaqarNEzvmI9GTcjKuYjjL6nd8AAAAAAAAAAAAAAAAAAAAAAAAAAAYfLPzi8xfFnmOWvn0/j+5X8J0J7XgMdaRhKAQJQgQJAlkaGSJyV5SUL/02u10m1Y5FuV06VdWj9ss/HbCnXjKYnKmM3lxuCnStfwovRJa9TXEUsZgLmGmNLbE7pdrN+m5u3vKUXdtOD+ap+ZD7qPc4T5Fv8Y9GLd6dXbL7FhzAAAAAAAAAAAAAAAAAAAAAAAAAAAxGWV4cXrjbY/3PNct0zF2mrjHpP8Alfwk/wAZhjjFW0AgShAgSAfTCNdkhfRwo32ljCzTF+iat2cer4uxOhOXBtB7hjPFlhrsEr8bjbpuv3M3laaYwtWf2y7c1jC587GTXDyDXbVg/mqfmQ+6j3OE/wDPb/GPRiXenV2y+xYcwAAAAAAAAAAAAAAAAAAAAAAAAAAPNj8N2SFl4yzx6ijj8JrFrKOlG2PbvdrNzQqz+jASi02mrNaU+I8fVTNMzTVGUw1ImJjOH5IShAgSAQJQhL3UMrVYrgu00tDd77TVscr37VOjOVXbvVa8JRVOe55sXi51XeTzLRFaEVMVjLuInOud26I3O1qzTbj+KYPDSqTUVo/qfJWs+cLhqsTciind9Z4R/u5N25FunOW0xSSSWZLMj3FMRTGUMWZz2qSgAAAAAAAAAAAAAAAAAAAAAAAAAAAB58Vg4VNKs+KS0/uU8VgbWIj+UbeMb3W3eqo3MXXyXVXi2mubM9jMG/yPfo6H8o8J8J912jFUTv2PHUozj40ZR6UzOrs3LfTpmO2JWKa6Z3S+dzjnD7QkQhKXGY+tPC1ZeLCT57WW1li3hL9zo0T4fudj4qu0U75e7D5Gm89SSitSzvbxGnY5EuVbbs5RwjbPtHmrV42mOhDL4ehCnHgwVl7XztnoLGHt2KdG3GUKFdyquc6n1Oz4AAAAAAAAAAAAAAAAAAAAAAAAAAAAAAAABi8dpZi43euWWIqaTztzev07n0w+k74fe+a2bwGg9Ng9zNvPYX3AAAAAAAAAAAAAAAAAAP/Z;" vertex="1" parent="1">
          <mxGeometry x="-102" y="27" width="60.97" height="38" as="geometry" />
        </mxCell>
        <mxCell id="ohZuWaNHun3vW7Tu6cD6-4" value="" style="shape=image;verticalLabelPosition=bottom;labelBackgroundColor=default;verticalAlign=top;aspect=fixed;imageAspect=0;image=data:image/png,iVBORw0KGgoAAAANSUhEUgAAAOEAAADhCAMAAAAJbSJIAAABdFBMVEX///8AAACFvu3w0K9usOpXo+dBl+PotYL/yGnJk13Jycn09PRYputvs+5Bmef31rRhia1AYoBTgatHeaiJxPXvuoX/zGrb29vu7u7p6eng4OD5+fm0tLQaGhrAwMB9fX1LS0tkZGSamppcXFx3d3eQkJA6OjpERESIiIghISFVVVXNzc2lpaUKCgpwcHArKytlotcRAAAAAA1Vepjfw6aejHnKol74xGsfHx/puWe3t7eDstltj6xZdY0gJSo5SFV3o8dnmsg9SlQoOkk/VGhZmtRZjLtCbpfarYAjQl7Dq5PDnXdaSjqBc2S5o4x0aFuplYA/hsdbUklLRD2DbESsi1WZfU8AABNtWzxRRTBCOSm8l1mTelAqJyBgUTUxLCI5T2ErMjlOZHdRdJQWDwC0hlmdeFRoh6ETGR04UGWAZEqlgFsbLDoTHig6XXyKbE8sUHEpTW05NTGcf2QgGQo0aps3apdCisobP18LGCWIemxqYFYPx9JRAAAT/UlEQVR4nO2d+V8aORvA3/Fqq3J7oaKg9UIQr269QBDBevSwbrvd7roVdLdgre22q3TtP//OJJmZzBGYZDKM24/PD60oE/LleZLnyfMkM//7353cyZ3cyZ3cifvSFReEEbc74aiIgILQ73YvHJSwBCiMud0NB2UQEE673Q0HpR8QzrndDQdlFhDG3e6Gg5IAhJNud8NBiQFCYdDtfjgmXTOQcNjtjjgmnRBQGHe7I44JMlJBCLvdE4dkUAYUHrrdFYdkXCH8QeeaERVQiLrdGSdkIAnYjpI/amw6NAnIFh//DLW45naHuEscgr3qexyBP3XabXGwi0e/eEnXFMT6te9+308CDy0OTgnJW2Tqs3DwCceP79+/3/caIY7aaTLFxQ44ycAcQqqs9t2XEN+g1zM2eggamODXSRvSPy27iF9+AoAYohBdYxxMA7dkLR3unJhUfOAvqwgQRxSSsWGWvM2gfTu3K0NzglZ+fawAioivdH9NUWbgYBAfc6bv1iSuJVh8fR8DFBFX3+oY6TQ5DL8XhzpvRQa13X+zquGTEO+/imjeQjdrjMKLhhzqvgXREb77yUAoBzey0Dm3FXiRm9nlUZ0RvnmstdLfFnVvoFozyl+gq5Pp8Nx4FLfDY40aNQqcjMce0g3DMflShzpvWboG1jBd/tanWOivKt1Yfxf9aFJ80K0oggyndIh9j5V5dI5tKawuNaNcu8osik1BQ1U0OM661J9SDeOWhKbhKOzO4ioe0CRYmxvGxvAUz37akRiabvrUcIa5yDYEr/990d73xFsewm793LcKf0iyZxRhuDQjr8JuTTkSaXH1jd1+TcjT1uNj8ENkgGMv7cgQnFJhr2wk9mF1R/hDzRZMuhi7aaQfmx/YS4hj8pwlTst9KG6YvC0Zm4cqIXOX5AAC+p0+5Fgjt2QsDiiArNmHQeR1hFdy7CDHhbdkRlWUyDg3KJHDayX+W5UD+OitKBTII5FpFA4lBAOghHgs/3b8FpgqynszhMvhEWwQv8IXKViQK0wlBt2eVlHuhsLZd3WOJCbmoiqesGJYTOMrsdT4aGJ4xD1twoCSYqfCYFLQiW4lbb6adq/wA3ebUBS5Y7qevzUoEGVE9N+EW1VmONVQVIBntP3+w6hAiGhQ46xzEHWFeteXPun67rc+E8a+1Te697H6I9sCfT6Fdx5I6bv+hyEvaUwvuxkAzFGPkdnOkeHROGati7qh2Pf4Dwxtam5spLPTzb0eY7E5lqm8q39azdu91vhD1eUL42v/6W0sQ2uKxf6MxzQK+eh/Gg/KsAFRjUvHb8s62J4MxHSGqgD+OBsf5OUFSr2+g69SP4CBKiJbKp6XjLodb/OVNUgl7er4DQG63SXeggxV2ZmT+rE0KAmcbir3f4eot2Jxz1mQy4D/ubXheKhrYCCsykAXQwmNKC7uchzonx1JTM/F4tHJlLZKH0lNRsdjDyeGO2c5ZBqwbRBNWyaFRxJzUynDitxUIqnoaGLEjgvrVNpqxtmNocHEQ8Max5JMTQ+HGfWpFBCdVuHA7PR4PQYL+oyN9TMkwJXMIn8mTPrH4pF6nbcsM7FhWpMNo0sd3LrXP1GPbqa0tVUup9NLUNLpcnlrKlXviskEHSRaEjtV4w6b4kVK+e20P5tdb+khSct6dsOf3spnzkyun0pQmCva8OhMONMZM3QudVLekMla6otCWt6cMbRjfVeNg/va1iZ1vdpKbwC2BmQmpC3rG2V9a3GLkyP0Fw6cZBzRfu+ldNaC2upjbpQzWkZLenRof+kgvqUyubmxbgMOp1xfyuOMoxbGozN7hMewXnDCUyjX35fUxiMWilPgjXydxRBWAErzxEOQLdkypsaG3QFRDdeIRt0wmnnfwhsPQa6XlcA23sgPDMQjKa4LJ2UjRcQpPsQof0604WDkuwFDjpKE8rpzfJBxS9YiV4CGghYPZ1ln+QDje8tjkaOgGGnTQQPFELMoJmxiDTAsAzZHetbhPvUmbqyEe+VSTQKUtNhkJaJNIk0YgwpiurkjEUZIW80DFKW5Zgp94ftmEvacSB+ZbNaeQ7hS2WgqIfT8zSVMN5Vw0gXCmWYSrgsuEDZzIMJh2HTC5rmLniXBHcJkkxCVyLTphE2aT5G7d4dQKDsee/esbwpuEgpnG44y9rSksQ8jEfbPiVHy9Ai/dDBOKK4wstxzNCrfhjazaE6oZMTiEyxVHSKhWkHLbzjC2NOypPKVyIT4yTVhhvEEoxmh/1Rtd4V7sq2nJ6umoYSzXIBI2KUvBnDYDoUIPbkS1u4Wx4RpT8v6Et72SZuHTKgdM5LY37cuE3raThfwljffZ1tsU4oNZNOalHfG76lHCDMqb7Gys/2clUzY1uaZD2i/vkxZUiUjpVTyyL7fqmhaPFtqkz6ITAhi8sUHD/78dCRfY3tXm0oIGDV6FGVhaynbQld9Am9e30hv6ZoSZpY88GOIhHA5fvAAyF9v+ZgpTih+eJtmzCA53iq/z67LxdE6SpOKauvZdHnTpEi66ffIH0IkhDPpJ0j4AG6Atj2dagnFj/fkAuYV67PS5nY5vZHNirB4KbhFospm/e/T5RPzArDoH07nPepHEAnh6aA/ESFIytnf2KYnlBjbcgHzjsqSTFYqlY+VTCZTkSSpt22tpE5zbR78A4iE4PfvEOCfYAOt/Xu4GAkBpCd3umlti1B9qWwGRe3pWicRwpwRGoYPPoFX9gs0poQQcj6XPsmYd9ySlKpLWuU1IoQbaf5ChAfglf2ohkSIKNvm/YEq/a6o1PZpbr5Nr7xGhGCDUlIehuAgQsQ2YF1CRCkNTP9OYMuKPjNbgVM/YCO2SCSEIZsyDMGbOOSNGxFinJLd5orBpXR5+2QzL8rFhfRvfvNEnGOXgsVcDr2vfltEQjgMzxHhOXjF4fYm1gh1pASx1gaRcEwzDH8lmLLDhFyERAj3CSLAB8BX8LiztCZqa5tvawIqgbAL/PYIAX4Ar3jsx8AIPTuCcBF0npFA2GkyDHmU4LC1RQ78+HFn3vKI4koIC5myr0jxGoY4obJ42g06ykggBEwVeRiCt3C5czZGuIP5tcumE8JhKIdsf4FXXE5t4zMNvhq/dE6L5oTwQJC8coIhG5ej9/hM0xbEluTNJtSunEDINsMlaarxhx5P8AIBVppNCBalx5xXTgZCsAC+/Cj9JthkQmdWTiaEYAFcvKw6ByhGd9smhDCBwXvlpBIGPLpOOAQotusPBqGv0w6ymHEYcjpvgXKwzgDp+eZPsaXmLI4IV04zvFdOGGHZ+XjUkI8VsCM1cBi+0YRsnA44y3n0JacRPX6zFN7M+BiIPbUrpwOzydYuodOIniUTPiTRRL/JyonXpim1FlJ2clXhSZvDaUS7cuK1Vx+r9pRyzrkIv/whB1/3RTl/a7hzkCjvPv2JDUNex5409SzH1DiPMsxH+7299+7dE/95sn/+xQQy8vbThwfgD0led4rQVexOzRKctgX5eOGThIekV8TcPz/WI4oC1cvtmUOQcFtpfiHgwAJ43ggoUz4hWKwwzusRF5CwWMCSoZt+vor0oED0QA+IKEkWm4oleCyfIGGwux13x8ltP6fATWomiDbRPDEDVCg/nJul1iPjtikVwu6CphwtbPuJaXkKutypUig1V6HGYj+cvzMrB8Vs3W5PIWzv7i5qGYVSwJ9jC8NhgnypuoK19qE+oUqpf+yAJDNzw6xzq0oIGE/0TWc2T4soW28VTYILlvP6IG2/ISBmsSbjMjnNNvXghBJjwbQ4mto+DebmCRl8/Lc5/2lgy7SGfNxYhTpK40FbpiWxlhAqsloxtA3ln9LJZeB0ye/PzWOSy/n9S6eB7a1UvcrxcwpCxWKfv9N6EpYFlYEQKLJ4WarTWTrJw9FtYRgSdIlbLMPhYBNCANleCFbrl+etyD/VYKH7M/iR7CsaU349V6yKPh43J4SU3YXQZYa1mp8sBUIFsY3udjCeKgwqxCh79w9Qu9QVRTKhTFkMBXYv6u/N0MpKvirCSdeCNgrgl+d2CAHlB9Q8rWusT4goRZstFIOBz9XSMdlyz45L1c+BYLEANKc02A2LBV/tEt7r3YefQ1txa0yIgYJ3FYrFYHBHkuvra/B/MFgsFjTvwa+rgk940ttrW4tfQUu0mXDLhDpWvZDfjbR+9Gn/yT17kL0HLCNRQ1ino8xSUO148eB835YuoZ1SPuhUE7WFpNnPOUJJxEX8/j1WyF7gNChTVDjhrvjTbo0zo44QyBdGyl6YwaGLT7G1RQh+fD7E01q7LwlT78EnyWIpCWHFhm6VgRFeyx9e+Vxr58VYABNN8ulLE8gKLaVdwhD24R8LfBCRCr/7fK17N1N6RGlcHn21brGIkNVKtQZ1wYWwG6pQ2GttbfUByi9mUaDoSe5Z8SS9YPc35flazVxa+1v9VD6E0N2/9LVCESmX926OTCgXrVhsL3gr5fZ9nT8sXP/LUYfdRdjYcismiNJElSsHDSwW+kPK5YU+punuDklOQ6hxIYygUdiqE9FgW5/dmKUQBXFckoICFLZRbpSChDsYj+gqJM/PA/DSRIW4LiVKs5THy6+mFouGIeUJDEhY1QLx8YeyjT4yqFBrsU/NLLZyYKR8AsYvbdUN1S04OQcNYAGq5wuRT7HY5Wc3+jufgXGps1imYSgT5h0gLCEbJatQa7FPSeMSzT7IG9JW3eTaU5U3InIU9WzUaLHPnpp7EmCxvWzFb6W6VuUWqEFAVAd5aRUQpzSzWJESZNCptw2r9cMSz7GIchdCxHwerU8pjsunxIMB1NuG8QrpDjc1yoDCHpUKcV2SxiV18VtTA84UOfkJGfAZG6BMufzsucFiqatQuip3PsiBUR6D1mcZMqVksbguo7SAiPBUNfuM3QVwd7t8W4Ebu4AK5YvncpmG/iEzkDDk/ax+TQuXRRuQ3UrBnA8govQtg/iB4TiiTOgN4bNXhhlSGYL2TVQnoFGGTbUyYYe341qTz/54gsoOdArMOwW4B1plOGKiEHaIjDu6gOKf6k6h3Tpmd7ty44JFRjdBFN8j0C7DRimMUGK8vhB0spD/fFostDfIbEt83UHF0L9YCUbpCKHbYDi7riGUGA//NqkzLWTy1QCoTpim9IGE1H0OzznjiQInGpaTXjpCkdHbETLsV1BIk5VMfnM7ENi5vg4Bkaozge2TzRJWGbfj5wnie8Y6DI2ECPLyI2sF+Dt3C5UIv4O2WU56mRECSG8ttFuip/zigAJFWYZzIAMgiRBCdtRCl/l/KPgWH7U2AJRianrxvQDNM+1tJxMiSslkry4N+39M5agRnziebl6wEMLQlGmLW31CnLN2eHV9Wc1fXGRWImcLqv0uLJxFMtBPJButBn3PBdpFMRDo7tnOzFohxEFF1I6aKIeqiK86OmDOolEoCnu6Rwvog3Udtkc7UhBqWRVg+E8NKrFBT+FwekGrRPjFMN4PVBvTeOlIcei8FSUugzfRZjaQChk37+Nx6eHf3646GCG9qDZXr/c+EF0maf2JD6qQ9QGrKqG3Q/I5/zIzQiUaaxQq37M9KcVNHxB8saNCnPAKTY7fDlkYvYfwatKiwrcnOpyXtHCtyqqC+ZAQRqgu8yvXh/SMXlCzEo4J/YRDkGHVCC9kP/WMER7izvuKGtFbgz7yuRmED4VdT0mEy8RgAS6b2J86g880V/+qhP8yKBEV00xmEpRlIenQt5wSIuY+xHcDL2S/yQnuLbzeK3UBzDLdXBDmU3k2FMM6cwFLL7NAAK2aaPdBkQglxsO/oTl9Y5lskJ3q62nI0RMB0dLIxJei0SskbZ9GUGMacRq9+iYIFx0sOvSiRJs28pQNjVRJlL8AMzNFp0zs3AEEEl5jPCDKZgJUIht8tvEtHzUAXF4k/hldauvuEfAAbok5WtMLSkYpc6Y8kOr4wghh9CqA9u48AG+4QRt6E8VbS+KIvmVltxcxO3VEnGXRtZM2bx4BT+BGarwQ5b1joqH6Wm+U4xJEVw9nGbNoT7Zuu0ctZ2EzGcaRR0Z82fpISQwkibHcd8IY9S3LFSf7J/TgTUWECjct4ve5QbDEaBsBGkrFvj05/c7jRkpoo8fCNfvqsC5ikhyMyqNUr2I52ub0sJYB2ZjyNT6MXnwfJzl/qvoRXZyHzU9c7sEjIiqnNy9ZF4c6xJqSqJohlmhUQ9QC+pQQiOOD44eUh8YuXHLRo7dWaqhCxRB1gHtK6b7h89loRH044MJuiIMivR27SotPTRgxQ9Qo2bf8XbmO8wMQ+7FzxhFJkTYhvV5sx7Ge0afOJBEM0Odbfq5exOGmkDrBn/EoHF/W7GTeAGMNq0V+38NWuL495es8Utl9rXvYdveYE49OGJjGGYXj3Z1Ddkopi9pexZo7erEMShY+HwbyVNFe694NZkUrTj02PjyqYRQWPuZ3Dmso000F562FAnndYdvIyxeiY8f4QF7RB3cGafY/MZ5ptiRdE4JBkpvXV9JySsnqE7HUQo6xFaN8lwx3+dmj7yva38e4+QiCrMVN+3NWqn7eCYUOpSIFDoSYa7XD0M71592U5ZJj8mhyxeTXXJ740EjCiToPVV84m8lc5He/fdtF8m03f5FZqXPIdGV0lPxHrUSmm8EHpGtkms+z1Scn+kW/3TUcbfxWYZzjs1csSXjt4aSdu5Ynpyaw7S9diXi9xiKxtSbjyf2aTcxF6bWZio+uGR8TMzQ7FjPbsT4VS/S7gydLV3hkbNq0b0a9ReemE/1h8mw/FO4fHpt+GItPTUXjsdHpsZFBp6dOChka7BxOjI3OxadSuMFFJqPjIldibTbsribu5E7u5E7u5E4ayv8BhcuG+9nVxk8AAAAASUVORK5CYII=;" vertex="1" parent="1">
          <mxGeometry x="-23" y="31" width="73" height="73" as="geometry" />
        </mxCell>
        <mxCell id="ohZuWaNHun3vW7Tu6cD6-8" value="Unlceaned&amp;nbsp;&lt;div&gt;Data&lt;/div&gt;" style="text;strokeColor=none;fillColor=none;html=1;align=center;verticalAlign=middle;whiteSpace=wrap;rounded=0;fontSize=16;" vertex="1" parent="1">
          <mxGeometry x="-180.5" y="107" width="49.5" height="30" as="geometry" />
        </mxCell>
        <mxCell id="ohZuWaNHun3vW7Tu6cD6-11" value="Python" style="text;strokeColor=none;fillColor=none;html=1;align=center;verticalAlign=middle;whiteSpace=wrap;rounded=0;fontSize=16;" vertex="1" parent="1">
          <mxGeometry x="-102" y="-11" width="60" height="30" as="geometry" />
        </mxCell>
        <mxCell id="ohZuWaNHun3vW7Tu6cD6-12" value="Cleaned&amp;nbsp;&lt;div&gt;Data&lt;/div&gt;" style="text;strokeColor=none;fillColor=none;html=1;align=center;verticalAlign=middle;whiteSpace=wrap;rounded=0;fontSize=16;" vertex="1" parent="1">
          <mxGeometry x="-13" y="107" width="46" height="30" as="geometry" />
        </mxCell>
        <mxCell id="ohZuWaNHun3vW7Tu6cD6-13" value="" style="endArrow=classic;html=1;rounded=0;fontSize=12;startSize=8;endSize=8;curved=1;" edge="1" parent="1">
          <mxGeometry width="50" height="50" relative="1" as="geometry">
            <mxPoint x="50" y="70.51" as="sourcePoint" />
            <mxPoint x="172" y="71" as="targetPoint" />
          </mxGeometry>
        </mxCell>
        <mxCell id="ohZuWaNHun3vW7Tu6cD6-14" value="" style="shape=image;verticalLabelPosition=bottom;labelBackgroundColor=default;verticalAlign=top;aspect=fixed;imageAspect=0;image=data:image/png,iVBORw0KGgoAAAANSUhEUgAAAOEAAADhCAMAAAAJbSJIAAABKVBMVEX///8ahesSbeMZgekjoPQXfOggl/EsvP0ko/UUcuQlpvYHTNcinfMhm/IYfugTb+MWeOYqtfsdju4OYN4nrfgKVNorufwbiOwMWtwGR9Ydje3z9v0flPDa5fkMWdwosPkPY9/k6/oFRNXN2fYRaeEDP9MBOdG8yPEIT9myx/OrwfGUp+kAONSbsu14v/ft9f1jd9yU0vwALtFExP52t/QAKM9jft9kyP3e8P3I5vxjpfC50/fU4vmWuPFNeeFEa92m3/6g1vtgvfmByPrA4/zX7Pyoz/e62/qN0fxMqvN2rPBVl+yu1/qWwfROg+VHjOl3n+uB1P7H6/5gzf+V3P+bx/aBxfl1z/5PqfONvPRVt/hLqfNrl+lRn++cwfNpr/NojeVJYtgAGc2A+mg6AAAYGUlEQVR4nO2dC1vaWBPHJRAkCCFyEbkJSHTVWvJa2ZWbXW+gIl62b7GK1e673/9DvGfmJCEJCQaSeNnH/7b72BIwv845Z2bOzIlzcx/60Ic+9KEPvTvlvh3+2Nudn9/dOzvovPbNuK/64VGxWFxUtbR3IL32PbmpEx3eEvkFv3/8ayzZWErq7EcRiRb36q99b25IOgI+c8Slxb9e+/ac6yQpAxIlF4+O9vaO5heBVkbcfe9mPAvLgMnk3kE9R/9S6hzsFWXEpaWT171Dh9oLJ9GGycUDwyvSd9WMxpfek44AkGjR1E7flxbfO+IxBQwfW7xe35UR3+tAPZQBJ9z/X/JIfZ+esSEP0Yl3f0AR51/qplxVMfw8oIK4+ONl7slV7SBgqPHcdd+pFfeI/jr49o6CVSkUJojhw+ev3FM9IwzX/76bVeeWEIbDRzaulGSnsTSPWpo/8PreXJEURtkKyQ4UI87LjLvvwY6HaEIrR2jQvDpOFcZ3sPAUATBkc92QiOef392dh+EqM+6+9SWnHrA7C6lkns7BrsL41nMOHKShWaZT58fiu7BiFQlne+832Yx77t6SywoTwtBwxjfn9ijid1dvyWVFgHBn5rfLiN+kNztSTwOhUDjQn/0DduW5uLu799fJm8OUjkMEMBQKPBuSTvgMebmh+u839+7OuXLH0QAChiJOkr6DpXkd49vxHY1wRAYMBRyNrl094ptZdg6JAQOIGIhWHX3SN104DmZ06RadaSeIgIFIJDS0kTdNVP3g+/fvf/3YVRF3XblFZ+oHI8gXqD4zBSVJqnc6nW+dTp18mZt87cHum7FiJxgBwmjNelmQOv2z6nBYJLlxWN7GKS4uHe2dHTQmrCUHMqLXJYDGY/By4gWhaIQoaDU8O/0jBJPJkprtflrX2N2x8gp1GdFbr1H3x+PZ4AQfNwgi4KnpiyfVcCikpTMgYsGmWEzumpcVpd0XmIqX2Xg8H8/eW72ei0aJDYNmoVrnOBwIy5qICJSLe2aWkq3oafI/SMcJYj4bsTBjNxiNRKPnJjd3FAiFrTTiHNXeimY7NTQE8NSIUjaLiFZmfAiCCccX0duABhBGanJ4dHbYPzk5aTQaJyen/Z3jo0WKOYI0yX/pOPU0tpHuqBXz8aiJM6gHySgNjiVM9TBGOJQuOTw+7ZhHOvXG4d6SFvLAeMW3pRcIbbpgRkCMjy+q/TwQGpeZTkgO4UKB5HHjuTAO2xkUxDPjqy/iE6U7asV8fCysvgUb5g3OW5IBA5Fbm2G4dLiUlGfjgeGlH4g4453bldR4VBDTXf1Lv4LBaDBguH6IYXggtDM5bNHr27xsR4PJv8MwXfIuWcwVBr/yPpiJFDEf13+vOwIYNKykdQxTI8Np7+rQdJyeIKFHS0292yR06WxcFhCmC7pLCGE0+Ev/ti5kGpEZcoxvaEWDa8ClxpNKozSIpn3pLCiuRdRb5hxGqcGGt0AYnmVc/cCeFP07PbJhrvXIg/VkkcBNRswa52E+GAxG9H9XxVRjlnvaMyH0ZB7W77PAl5YR02mfL/9IEe8Ml94CoWFuImHkfPqb2imaEP5Awqk/a5I6PZ+f8oF8/nTz8rQ8V8PVJm287X6cEOb1/rCKGX9kUiHfTNIeXUwNhK77w06TV/kIXXBA49G2DwG7xsvrYEPDRKxGcZgGosMptt2ksyR1+0U94Qlsvy25F9PUm6zfRyQbr6V+syBMxKxxjBLdAWJet9QRQooYiJ53bU3H3MneKELVE2LNZtGthSZ3zyMfkZ+/GGi+0z2ZkfFs1uQbdXGY6tCBUEYMRCLDnWfCtvrBXjGpafPTEdIyqlu5RSvN+imhn+21ta+0fbjijI1RUB6NOND8DRKqjLA/dX7bN9uukDonZ0fFZFiTMEKmqCGsu9laJD0KwEd+8b6a4V89Dotq+tH0fWjEYFxDX4WsPxCKKowhGRQSqNvjHdBx9WiYDI+yf9rlV1xEK46+uVzrd8eEXZ73+/3Id28cVffUhBaDLYCLTXxkxSrJ+qMP0mEoKDOGDDLJ+8k4TR7XD3Eyqt+nQwEX3dinyTUFBPTzbG8cJAgm9JmOUbgPHKfB/C9lHFYh6w+TDz0dBqkhDWgmGxvhxR3yfXd0hN9xVrrTbtv2yYDChdmq1SSuP920fHc/ThHzNeodYJRGw5hXSP1hBFfWCYjkq8VD+m0pIb6zfrhUxK7iRTdKpk8cy8MgZX0t09frab8/P2FB7FLEYD6eP69eDu5glIbUzKnTr56HAyqmYcOmeKRZaynh2c7Z3mJSdh2uAPY4HiWYDFAqqdudmOopiLJIUqwhxA+onxweV4dDunMK1hsOq8eHxs2NnaRxE67oAmDuggASGwqs+ZanLTUiCiNJpqLjhKPvRiSR3+YfoxKq+29OyyBEkk9gYYwKF87C90FeZpQRLQgna2RDulPsxrGFDksAiTjLLV+7kgaBOF1VETHsjBAg99xIewusAISCYL7ETKnOoHYXAAMSyJl6Tighnh46e3aLzpYKhA9+8YXnr7WvGljRZJP4eQ3B9RddzHY7nAB83LW7GXQtT6wYnKGef0zDG/fupiyguGvXPpGqloflJhi0CoIs1BmGXSbM+TgEvHDrAxURQlxR86EpWms6yiENFwmvY94AIiEikv9XbaX50mFxFKe6Rtj0CpASyn4xmI9W+/VJnkM6OSuGtHG4W4RPIgKm3fk0nWo61w9TMvTr9rDRqetvXap3TneqRTlSxRjcTcIKA5OQ472oByBh5CEelBFJpgGY0UAo/HA+pDo/JwkwxOKjGBxKjO4RSgLHcQInlN34MKOQMDDXuMvnVcTISJqsWJ9mHNLDGu4QXjCEkGNciWTGBIT5AJl7ndsQLqsqorJ1Y0yJQ6HkEezFuEf4JAKguO/CR5moRmyHhHMQyJ0HgdIKEaqMgeKt3GrpGmEZARkPllFUDQo4gdH62ejWQkreqNlnhF+R8NGOppEUCMNJFwivcYyys0T/dlSL6wlR9cZp97ZKVpgHovPzYfV2p9/oGC6ih6acE27RMVpx/EEWQsLITNkT2ND5KJW4WIwA9px+jqWcEIbdGKU3YoyIc/ox1nJEGHZOWEgAYMmzMeqE8MwVwmswoXjj8FMmCQnjs+xrJd0grJRiTCzGeBLMyKrRxpSpEaVh2A3Ca5GJMV75eipKmM8a6zvPqK/E4M4IKyWGiJvZFbbvm6jepfUokAnz8XjV9m6g1E8qnZoOCYkJGab0NOvbeyytb4AsNykUQmC8s1MElk6q4VEnozPCQgJMKM769ibrU4rEPh9vhVjL5keK5wPV0wmUuUZ3SMI3bdHNEeFNSXRgwlOBllBlpS3Gei2Li6mGMp5/qA1OG/Wcsp+fy0lS56R/OwxB/U1fWXREmFsWGVGMzToLe1gF99NKKjGixWpZg66GYDWuMmLpDaEB5+GBpEsBSImjumQxFBni+UVHhFsJMOHM8doFTEIfWgcQ/QPzy5AwOifdq4yjopRSmjImU7Q3ZQeN6ISQFUFT+cLcZq/3RL9nOw1FYlopFYCwSedX5/LXvdaclBAGyuldnlJqEHVZvwwYjZxDCXhuJ+CQsJ0gfKWpNoBbLG6qDohFfByvJ/T52cfW3NwvHr6MjlaTESFUuquPQaQ0R4QtnIdaX37zDllRQ04Ie0CYmGbrYpODwhTPCk1eoK0MWkKYi/lHP22giqu7+NggFh1NdomkwHdRubcxGNQUUwMPtR3tQrsDM9IJIVsCG07xhm6M1t544MNCuF+o4StpzZIqS+0nQsKgcTnL1U/63cFltVqr1aq3g27fpLvdKWF7BQCniLm7sKcqI0IVlWdZQa7iVPysXw9IJCOaE9qRU8LPMEiX7adNmzGoTNEKIyASvJ46xKVuM630wCmcshWBMPsqhFfTDdI2bvuzsadWDBAFrtnWX5BrXQjImK036WSkWDXogZuNMOKIMJeCdean7esvcBVlLsmCygiEz8zJNPJkbsLopOsN9ZA1aDAynlCwpVtnNmwtA+Gm3ctztLCB9f1202g/Vd0mbRJr4kDFhfYSu+AswoFJqmN0Y3KGyqZuEmSUJmy7+w4Qcsb4p33ZvLjOXl/0usYSbxaHKV7jxza4yacWTdQIQ3QzS5O/LKFE9NX25VIJK8TaYEW6T6vLjsBe6HKLexymtH0R++Cy6cepTuZLtHk6YHa6yp5yywRwimk4l6bzcLT23hPvyCt+EZr8NE1i9zzOQ2q3go+2+Kcfbe9kdJTW6cit/Ts0qAKEy1v23wDrCxTg5D+2fZzqF5U0WGjKq0KbxWmYlf/YpYjxbDpeO3124ch1Bg9BBXDW54YQba4AodWCYaZ9WuennSibnEBdP7h9VmFks3RMDXh0ieqnn9KzKMQvEsjmvXUKXKdFjSgNwyOOTvPfgA1L0+QV1Ii0vDGI0ehG4IRss/dIRrA8VP1488SG+pS4/oiMeEYDKPORX5fd0wY9pg6H1hsn/UHtPBLEEqMchkejDp4aQvx9ggDGpnnHNdiQeZJhsbVIULxGrntBGXk/dRaYMGqXz34QGONaZUdncJQwXC6EE8RoMHLrrFYEhIlpMqeKSAg5P3yJnTcsy11o1zlsfCeIWKTrYHAT191iC+yoOzOVz4+nxFG52B8aON3r/m0hkViYZi+/F+M4gZaJ5fDG0N0nkaAN5iL6djSicV+jcxkcnX2zRAxCw8aJC7W+1tXVFKlhuwIlOLqS0gnJjG9gXVArwj9+m2b9Y4cOpNavfJpSmiDiV+eDV3jK5z5TonVi3Bz3c2bhDSgNc5FF22bpQRQ2P+4DIQVuRvPEeWgnZj4YuPs1OH2dZ5heiDG0ICeCq2iDCTmf2YVtHKc4Vy95Je23iEiler192u+i+riselWEfl77JRkwhq6iB2mURd9GE8YphnZtZWPDx7/5R8vmBKigoglxQwAGqRraGIRG5HEAjzY2fplf+3ZULkENVSTuE7csyjFCGLPaZL0mM5FHJ3QKHePUabzcvc6mNhCKT+0K9e7oFy2bi2CY8nSOSu12G51G9vUmmD0h4agMvskQvyha9UlfktCG51Uf0ePfByFDCFWjPUH3jWgVcGzCPiM7InwvNmQ0hJvgGUWr7GBgIHwfNkwwMWY0SltIaJV23eNesWrh2nshZGLizf7+FuZabSBkrHawHoHQT9/39PR0AYW3N09YhkJxDKpUJbBcGX2/xfZHzg9lDUwvLqHGwUN90auWQPfEQ7Efm1LwXq/Q/ZsvNS04FiZAYJqTS/wkpnF8wshzbWK1HxCRa19UY/AxXcCOBgemPhWUFgb2zT2Xc1z7CdmKuN7QdtSY2QYIbviz6PB7MiHLT7MX9Gqq/C0w2FqEgSn2TMdM9gfKWF7kcOMUd+B4X7bnZbuVm8pJAiAysCwWSpgrjtXlJB/sbQh4ouEUDqKyvbe+iuq0XyIDtYTTr0d7bi/099/mcXuKw9jgGo9pvosBqqqMDWIiUvmxbzrGabyitM/Q7SnMOlqw4rBunxHzWj9huaG9xAVOThj9+22yUubKrZ4QEzTHiogJWV6Y8rTaq6uNRozh2t+W9zXIzCRrJi/gkRs82oc2bsF5d9b/uvc7vbDLj5HzprIgchpRPiEmhy9PWNMQZu4IfB1RpyheyX/M3YiMAZDjFKSyQJtSXD1t67mIQyT/aRx95arEaBBjjKbw3cKgVPDuAIAHKi8TE4r6s1+Vm5JIvCQJWBmR07t2RGTffsytESEkJhxLKdqbveZjc79l3DGU/FCZel/uArpvmBIi7vO8RWd4uee/xtjVj+f6rR+A8hb1ExGhLg79cCXeJAfO7aOfbAEgen9vjvt5pTJTQive9NAvMiVhXx9Ut3tcjBalun4sLnLmz1l6KZU3batC4882dqMyIgWETKPE9xR/0LrhxJjqFrG+aPvUdPv52v4M2spkMguKNlSlRloBLcPvVIyOtnYJERlRQSSQ8pbUE3Ucgka2n1xQ4/0+B0+KsVAlo0IgiKrESCVViRUjYknZ2JDPEymOUeBiKqDNzKkNjSmmlSwnKq9q7GQHMaYMVGQUS/tXwAhWpEMxQQGZ2E2PhqhmCbK5sD/M7Z0OKbGRmg4xJW+Xlq/h9SsyNCs/Y5gS/xwRMjgtN2HjyrR+an4v2DyVdRdw7uuCMtk2MooWMhZzEvpuSiuqbyhsbsqrS44liOK1VCaCrJ+RqXKVzZZ9k1z61SZG9/R3RgW8KTyrFrYWme0AX+NAhQmJ9UVxplQCW4v87g7ST2sIB/9b+Pz85eWUzoYaoWOE5QYPoc52krgL3VM+dyP0rTUYgBsJu4SFlJUNC+o+Koi5MrnkWdGGBlf3cyoZOskqG9MQmtqQpIwjRKY0y222sD3M1RSkvIFrSaYiLTgnnNuC2jc6kBI7U7YbN2sscqRcAgHXtuakjF3CDWvCuVxrH7U120npAZjQn5/pvRb6uoqAn4gfypBhmrFFmLAmdKacDyo3Th7uN6afawC4CmuCfcIUcf0pTwhrLBTf3DTh53Xw6Jk/4etpbJhIeELY4cCEbm6M/7aOUcsyuldCuPHKhBeaw2/uaI3GZTRvBcKNVyV8wvob72JtqrKNgIk/voJEWFRXbXSyI6EHK02BHTUyuiSZcCFDk190izacGLXhFE39NnUNTX68q0mFQjhKIDJ2DpR4RNjDI5ru1t80hBRxYc3OHPCGsIWP8hXcbWKghEo6uJBZS9gKtDwhLOBxG7cLjJVt4Er8KesPmzftBaHkg/oiz7rcW0sIMwvrv037tsLGsuuE11gi5tyuoAJhZgbCheVllwmbHlWmHBAuu0qIgKzgfmHqrRD2OHjgtOBzf6P7GcLClkaadM9twl6MnpnyoJMICbetCLfWVkc7iwuro3YgJNxwjbCHTSlCzItWm8mE69qaRSq1qt6Bu4QXDN3z9+TpaRMJy+u6skwqM9oCzrhHKF3LXTfeFBYn25DuUKmEC+o0cZGwwNPqlOhR5bTyZRJhO5HRxKyafNA9wk1atOFiXpWGK19WJxASFI00lbFCZsUdwp5IAQXPnmBICFcnEVqIEK64QFi4FrGEyrn70H6dgHB1NsIVx4T7DG2EY6x+xJAbekXCgl/ugvPwMalzzggXnBBKPbkFLmZ5TMMdeWXD58KvJ06k5xdFD6cgyhsbVpiV0qTVf1Mo0fpizNsRivdiJKx8tpQ28l6dQJj7mUqUEinL1YPwMbS+KLIePuZWlpHw8/b6+ppWq7JIYLA2atGbRNgSV6CdIWVuxPK+kFBO24j7L9C2byDMbSuJhEnn0Maa+i9eWE1ZEd6klrFjY8FsflV+iiVRbi1KXL9IL23ly5qWsPAlMwFxbRR5r6ZSpoSVRIo2paTGn4jW7pUSJZF2T4kl/oU6+Ajh2uqX0ShNrU1A1ETe0F00Tpi72aCtN8slw2vl1k1sWe2eEhOsty5CIyBc0xC2E19Q23qtE22nRpeZE7ZExYBXmmUmV9i8uSotJ2jnFChh1qXplcg81BHSn3pmLs1FpoTEgLR7qkQBpEJl8/NPoZSAlUfFKyWuvF9ANYJ5qCe0JSTM6Am5DaVBrESmWSKFieWy3Cam4nEvfarLOEptyoTwt4VJPXAloFsWf758g/CshGtjhFsbk9r8Essp8ab1GqfWKr+7RVhOrZgg4sK6nBCvt17rIIl7hHP7shHV5s0VmIfM178/t17zmIyLhHNfU0h4c/OT6Obm0+etVqH86ud9xwgrnyylucqUsAzbU8upTy9z53ZlJPz0O3p3WboYfG37D/UyU8K5fVxOMy/q7p6VgTD3uyaXyBgDuPVR5L22YUJIx+nKzA+s90QGwoJKaIa4Poq8oR91nLCA6+mGlz/6Y2pVfl/XjdKNdTUjHKPMrI4ib+iFGyck4xQR39I4JYTrWsLC/1bXTPgQUfOUbyQ0ay36ClZcEd/QgXQgXNd5i7KlNBdZEpYX4BDDhqc/32Q6IeHv0/vDdav2sH3YDU9N8ZBXrzUroZUN5+auNlZWTGboq8l1G86Vv2Y23pAJPSCEmez0rtyUE8K1NzQWreWFDd+WZiZc+LfbcHth4d9PuPCvJiyvvy/C7f/9x0p/mOtr5t0Qtv/B7ewxaZJgs1oUJlRrL7hz7UC6nF6f169qimtm+aKtjvDX16d/1mdEXPv7te/dpv7458toZG6bo44VSzOZ1e2vbygJnKzf/rOg7lNsbGgrorrGRMMZ9q/vYpn50Ic+9KEPfcha/weg6hphUCz60wAAAABJRU5ErkJggg==;" vertex="1" parent="1">
          <mxGeometry x="180" y="29" width="96" height="96" as="geometry" />
        </mxCell>
        <mxCell id="ohZuWaNHun3vW7Tu6cD6-15" value="" style="shape=image;verticalLabelPosition=bottom;labelBackgroundColor=default;verticalAlign=top;aspect=fixed;imageAspect=0;image=data:image/png,iVBORw0KGgoAAAANSUhEUgAAAOEAAADhCAMAAAAJbSJIAAAA21BMVEX///9PwOgAAAD09vj9zVYraX5Rxe8lWm0yeJLu8PL3+fthYmP/1lrs7Ozp6+3Ozs5CQkItLS62t7mUlZahoqQnJyfCnUJhYWPe3t5QUFBsbGw4h6NMueAVFRVbXF3GxsYJFxs9lbSLcS83NzcPJCwRKzSxs7R/f3+Hh4dCNRZ4eHi+wcRBnr+MjIyCgoLk5OTcskvyxFILHCL/3FwfHx8mHw1LPRqkhTg8Pj+nqaocQ1EFDRBqViTHoUMUMjyHbS4RDgazkD1ZSB5fTSB4YSmYezQxKBEZFAnUrEgiILzKAAAJLUlEQVR4nO2dfV/aOhTHO9jYWkAeiq6w8TQUFB9Ahw8MvZtubnv/r+gqJGlom7RJkyZ0+X32x73Y1PM17TnJOUmwLCOjf0+zmnDNVDNtqdWrC1evpZoKk1uQoqZqLiRJgIWeajAoWYCFhmoyIGmAmhA6LWTQoiFMC40IsR7sNIVpqg8h/oi6RUeUWtoQbr2DblGU9CHcdjI5JESA3ZwSQsDuuJ5LQhQm9lt2PglbKwg4yyehi3pwtpdLQvQOvgDmkhB50eXeXi4JEWBrL5+E2z2YP0I/TADAvWK+CB0YJgrTU6D+Xa4I/aHa6A4qV6O2foEoKqHj0O/rOLoQ9vgIHW/ao2pawxCVEjbIhEsaYJvcbqN639GdcOU5ZMLzOMBC4Vwrwu5+UI362Kb04UU84WRPJ8LpOKgmpQdfTe7GEra06sOWFc4eUQCLzuw4DnDq6UVI5YlEPKXnD089vXwpM2GCRCN+8S4Ssv05DKEhNISG0BDmkFBAPU1rQsfZSy+dI74tppDv2roSOkshgIXVUteRtx07a0ioY137sJh7Qme8EAK4GOv6lBbt8UgA4Gisrad5ZRQh/IbaEQqXITSEhtAQGkJDuHuEjiMg4Os8P3S8ppteTX2z+k6NUhZmULmm68jbEbVW39WV0J4IIrywNSVMUsBOJG370KnFLkJIpLa27+GLLz0vl8sfP6J/H8vJ/mH/Uy67M219afxioETSOR5KkCE0hIYw14SxvxsQuraAchNZoNjTSGAPm6rjaTlGnc3qrbu461Jqs6y624m7bjquMhFOhQxOstWUBXCm2lousXTiqWpjudRnIGyqNpZLLMcS/CuEg3e7ogEn4eGb0m7ozSEv4ec3u6HPhtAQai9DaAj1lyE0hPrLEBpC/WUIDaH+4ifM/Qx49X5XtOIk3DUZQlyUIy80FktG2FZtLJdsBkJL1MqYLHXOAmj521++fdBb36Chx4wVxCLsxaOh6nhO1fA/2IOsJVK/Fw+HqikoGh4CKy+YAS3LQevwzkqqQQgqnUETp3xLldA5K0PVKAQhwAkXn/6I6QEtCz6oV0PVNBEaXsFHlB/QcqC70dCjDo9gmEi1XFDfoIHCxDHTUCYCUdOgcXYkCBALGiuNgkbpbADfQY44GJLvUXVBLInwotGIqtGARAP6QWMwVM22lpAwEZBW7gaFiQsRq8qBdAoafpgQ4WTCiMp7cSguTAQQobsZKPWopTP4Dk6E9uBaaDKlEFF4mCAgnikjlAvoI66GqgAHcgH90K/I3SAnIw1QcdCQFCb0QZQWJgKI8EHNfNZ/liarxiQ1GbjUWTU+xAwJZYcJAuIwO8BVloA+YmZBA2W2BU6XqCpmnIHLJEwEEDMNGsKyakyIGU6J/TCRIWCGZZsScjIZhIltofSU3KAhJUwUqxEKv+OZxEUKYEIzI/iax50IubXQQwJ3YUocwJGzak7fjTLzuBnLSDyBZT+0lgONUaV5VErxpb9PsNONe12rxO9m6IRcmS05aFDChF0mmdmN20laJbUsNMJNbalBgzZdqpK6MH6vLHkH8H5E06K8sg29+JIZocTJFD1MpCd8/oLpnkIoK2jExEFAeI+b+cxE+LWC6YFGKKdsE1d8AYQPuJlfmQgrbzEdUAktCUEjtvgCCA9wMyvSCMXPNOKnS9kSCkdMkFXLmBDLwAnwqImKL1kTigwaWFaN8vuyJxQXNJJNlxQQigoa/kiG+ttUEIop2yQtvighFJGBS5xVU0IoYDKVvPiihhAPGlyAKKs2ic2qKSJMFzSYii/KCNMEDaasmjpCv9bPishWfFFIyFu2YSy+qCTkCxooTCSs8Kok5AoazMUXpYQcZRv24otaQsuB2fBkGTis+JK4PqiYkDFo8BRflBOyIHJVl9QTJi/b8NXoNSBMutvGz6ox1eg1IEyYnuKt0etAaNkJ8qho5wtrjV4LQqsI38UBIWik2PmiByF2Vm8kYrKsmt6EMYj8gPoQIsT/wgfBlD7xA2pECNfdXIUX+Jc+bH404Vknow8hLIQPPpEIR1y31YjQ8kZ0wvbuE9YNIc9dDSFFhpBZhtAQRssQUmQImaUdYZVMyLdUXhPCaq0PNCYSLprwmhrLjFwkYRGZ2VwQCcfITOzO3rTRhSISFtAlI5fBKoGEVXcUMDOKEF3SmHroTxP+7skoQkwtJYStkB1RhJjQoqqIL2aMIWTIHIkjLIa/oimGsF2DhHU64TxMmHxeLo7QCRPOExKGT0l83iKsnAR+3F0mBhT5lC6D+whuts38EsTwT1KsduBn1zcnJyc3399u6/J+/fGPcMtMCf2e+LG25/4yYOf39cfX8KoOdusZRLx5mM/nl5W3QV2+fPx4zQEoNh5CxOvHVzNDVlZezXy4AReVZ3jTGXQ23yPwNq3nT+AStj1WYiM+rBQ8zUlmXsJntT3bbur5iNFN5z8hINvYRiwhCmw/59FmIsC6F2zr3YFH/DkScX4PWk4ZR1mCR21V6FDvIxEvn4GzqNfCbWsj0PY2quUv+PbOwi2zJPRdxq+onrgFP2xEAFIREWCZFVD8yBshhlxpHKBl9UmIKQAlzC1mcN9aqBcfwQ9GxFOhTxvgksftlvDtbYfeXhWEltcD9gS8IgTcpxzs3VxFIF6CDUUR7kkNIbjni7a8Iho+U08uB9PDwvWBH28gIOnhzp7QdxnPyMrKARyQjOltl+Cy32jYfvtn88mCC1DSHL8Gduf9uUWAv4HlsWNmhPiw6cVHEGC6LGe6Y5JDaPXBKPzHBrHyAAETTF3hPPP3X/ztXZxyGSKN0OovcJfxlwHQslwMEb69NPdElyxCq7nvIyLA2J3ca6G1PidzCLhgmBAGJI3QGsNePJjDCWzSg9nRFu0nOCPkB/QJQ0pLiFzGnyfwH8lXjtmB1FQKQEC4ejcM6X1aQoQIxDLrsTt4S4bMWlggOl8dhXSVmnA7+xY+EoGmKnZmQbK3lyQvnObaUipC/IyLMuskBY79OL5WYUtSCa0iQgxO6eMFEdOezTQjnmABnq1094eOv8c+6wEj+ItUf+JXLWl8bF/wE6XqOnXT45kUWN6k3WapUJBMcHsjku56rdTHd1XddnvCBfha6uFsGJDXJ6nG8WxF3J+pGGZkpJ/+B4fyFbPAP/3MAAAAAElFTkSuQmCC;" vertex="1" parent="1">
          <mxGeometry x="75" y="79" width="52" height="52" as="geometry" />
        </mxCell>
        <mxCell id="ohZuWaNHun3vW7Tu6cD6-16" value="" style="shape=image;verticalLabelPosition=bottom;labelBackgroundColor=default;verticalAlign=top;aspect=fixed;imageAspect=0;image=data:image/jpeg,/9j/4AAQSkZJRgABAQAAAQABAAD/2wCEAAkGBw0QDhEODg8PDRANEA8QDQ0QEhAVEA0RFREXFhURFRMYKCgsGBolGxMWITIhJzU3Ly4uGB81ODMsNygtLisBCgoKDg0OGhAQGzAlHSMtKy0rLS4vKy0rLSsrKzctKystLy0tKystLS0rLS0tKy0tLS0rLSsrKy0rLS0tLS0tLf/AABEIALEBHAMBEQACEQEDEQH/xAAbAAEBAAMBAQEAAAAAAAAAAAAAAQUGBwQDAv/EAEoQAAIBAgEFCA0KBAYDAAAAAAABAgMRBAUhMVGRBgcSQVJhcdETFBUWIjJUcoGToaKxIzNTdJKys8HS4TQ1QoRDYoKDo8IXJET/xAAaAQEAAwEBAQAAAAAAAAAAAAAAAQQFAwYC/8QANhEBAAECAgUKBgEFAQEAAAAAAAECAwQREhQhMVEFEzJScYGRobHRFTNBYXLBIiNC4fDxNCT/2gAMAwEAAhEDEQA/AO4gAAAAAAAAAAAAAAYrLW6HCYNfL1PDavGjDwqkv9PEud2R1t2a7nRhyuXqLe+Wl5R3x6zusNQhTXFKq3KT/wBMbJbWXKMFT/dKnXjav7YYHE7sMpz04mUVqhGEbelK53jDWo+jjOIuz9XgqZZxsvGxeJf+9VtsufcW6I+keDnzlc/WfGXyeUcT5RX9bU6ydCnhBp1cZ8X6jlbFrRisTHorVV+ZHN0cI8E6dfGfGXrobqspQ8XF1n57U/vpnxNi3P8Aa+4v3I+rNYDfGxsLKtTpYiPHmdOb9KuvYcasHRO7Y604uuN8ZtwyHu0wOKahwnh6rzKnVsuE9UZ6H0aeYqXMPXRt3wt28RRXs3S2Q4O4AAAAAAAAAAAAAAAAAAAAAAAAAAAABru7XdC8FQSp27PXvGlfOoJeNUa47XWbW1zljDWecq27oV8Re5unZvlyKtVlOUpzk5zm7ynJ3lJ62zXiIiMoZUznOcslg9zeUK0FUpYapKDV4ybhHhLWlJq650cqr9umcpl0ps3KoziGNxOHqU5unVhKnOPjQmmpL0M+4mJjOHOYmJyl8SQAhCQCEJRgb/uA3XTVSOCxU3OM7Rw9WT8KEuKnJ8afE+J5uNWpYmxGWnT3ruHvzno1dzpJQXgAAAAAAAAAAAAAAAAAAAAAAAAAAAHL99KT7cpK+ZYeLS1N1J3+C2GnguhPazcb047GF3H4OnXyhQpVUpQcpSlF6J8CEpqPOrxWbVc7YiqabczDjYpiq5ES7UYzYaTvpYKm8NTxFkqlOqoKXHKEk7x586T26y5g6p0pp+injKY0Yq+rmBpM5CEgEISgEISKTWdNprOmtKa0NAd/yXiXVw9Gs8zq0qdRrU5QT/MxqoyqmGxTOdMS9R8voAAAAAAAAAAAAAAAAAAAAAAAAAADl2+n/G0vq0PxKhp4LoT2s3GdOOxqeBxdSjVhWpvgzpSUoviuuJ8zWb0lqqmKomJVaappmJh0zBb4mClTTrRq0aiXhQUeHFv/ACyXF02M2rB1xOza0acZRMbdjT92O6l46UYQi6dCk3KMZW4c5Wtw5W0WTaS53rzW7Fjm9s71W/f5zZG5rR3cACEJQCEJAIB3rc7/AAOF+rYf8KJj3OnPbLXt9COxkD4fYAAAAAAAAAAAAAAAAAAAAAAAAAAHLN9SSWNpXf8A80fxahp4LoT2szG9OOxpnDWtbS2qZwnDWtbRknOE4a1raDODhrWtpBnBwlrQSEJQhIBAIyEu97nf4HC/VsP+FEyLnTntlrW+hHYyB8PsAAAAAAAAAAAAAAAAAAAAAAAY7GZewNF8GriaMJLTDhpyXTFZzpTarq3Q51XaKdky8vfdkzyqn73UfWr3eD51i31jvuyZ5VT97qGr3OBrFvi/Et1WSnneJovpT6hzF3gc/a4p30ZI8oo/ZfUTzF3hJz1rjB30ZI8oofZfUOYu8JOetcYO+jJHlFD7L6hzN3hJz1rjCd9GSPKKH2X1Eczd4Sc9a4ww+6/L+TauAr06NalOpNQ4EYp3dqkW7ZtSZ1s2rkVxMw5XrtuaJiJcuNBQAIAISjA7xkGajgMNJ6I4Wg36qJiYm5FvTrq3RnLYs06UUxH2fXupS1T2LrMr4zh+E+Ee61qtf2O6tLVPYusfGcPwnwj3NVr+z7UcbSnmUs+p5mWrGPsXpypq28J2OddmunfD0FxyAAAAAAAAAAAAAAAAAD4Y7GUqFKVarJQhTV5SfwtxvisfVNM1TlD5qqimM5co3SbsMTipOFNyw9DQqcXac1rqSXwWbp0mpZw1NG2dssy7iaq9kbIa0WVZCACUAhCQCEJQCEJAIAISgEYHdclfyyh9To/hRPPcpfJu9ktrDb6O5jzw7YQJQDJ5Nx7uqc3e+aMnpvqZvcm8pTnFq7PZP6n9KeIsbNKllj0KiAAAAAAAAAAAAAAAAOXb5GW3VxHakH8nh38pbROq1/1Tt0uRp4S1o06c759Gbi7ulVoxuj1aaXFNCACUAhCQCEJQCEJAIAISgEAjA7tkn+WUPqdH8KJ53lL5N3sltYbfR3MceIbKAAlCBsOTsR2Smm9K8GXSuM9lyfiefsRVO+Nk9se+9lX7ehXl9HpLziAAAAAAAAAAAAAA8+PxUaNGpWloo051HzqMW7ew+qadKqI4vmqrRiZn6OD1qspylObvKcpSm9cpO7e1m5EZRlDEmc9svmEASgEISAQhKAQhIBABCUAgECSzeZJtvMktLfEiB36NDsWDjS+iowp7IqJ5zlGr/wCe5P2nzbeHjKumGFPFNcCUIECWSyHUtOUOUrrpT/f2G3yJdyuVW+MZ+H/fJTxlP8YqZk9KzwAAAAAAAAAAAAAGu74FdwybWtpn2OHolUjf2XLGFjO7CvipytS46azJAlAIQkAhCUAhCQCACEoBAIEhA2/e63OyxGIjiqkbUMNJSTeirVWeMVrSed9CXHmrYi7o06Mb5WMPa0qtKd0OnZZq2gocc37Fn+Njy3LN6KbMW/rVPlH+cm1hKM6tLgwx5looQIEoB6slytWhz3W1Mv8AJlWjiqPvnHk44mM7ctiPYskAAAAAAAAAAAAABqG+hO2AiuViKa92b/It4OP6ncq4yf6fe5UabMQCEJAIQlAPthMHWrS4NGlUrSWlU4Sk1020HzVVFO+X1TTNW6GWhuNyq1dYSfpnRXscjlrFvj6unMXOHo/XeVlbySXrcP8AqGsW+PqnmLnD0O8rK3kkvW4f9Q1i3x9TmLnD0TvJyt5JL1uH/URrFvj6nMXOHoneTlfySXrcP+oaxb4+pzFzh6HeTlfySXrcP+oaxb4+qeYucPR9cPuCyrJ2dCNLnnVp291s+ZxNuPqmMPcn6NmyLvaU4tTxtXstv8GleMHzObztdFjhXipnow70YWI6Ut5+RoU1GKjThBcGFOKSSS4opGdiMTRZp07k+8rtu3NU6NMMHiq7qScn6FqWo8dicRViLk11d32hq27cUU5Q+JWdECUAgS+2CfytPz4/Es4OcsRb/KPVzux/Tq7Gznt2MAAAAAAAAAAAAAA0/fSjfAQfJxFN+5NfmW8H8zuVcZ8vvcqNNmIQkAhCUA3DcRuP7b/9jEXjh02oQV08Q08+fiinmus7d9FiriMRofxp3rVixp/yq3OoUaVDD01CEYUacfFhFJL0JcZk38RRbjTuVZNKi3nsph56mU4/0xb527GRd5boj5dMz27PdZpws/WXy7qS5MdrK/xu51I833qscTupLkx9o+N3OrHmarTxTurPkx2sj43c6seadVp4ndWfJj7R8budSPM1SnindafJj7R8budSPM1Snid1p8mO1j43c6keadUp4vnPKlV6ODHnSz+0418s4irZGUd3v7PqMLRG946lSUneTcnrZm3LldyrSrnOVimmKYyh+D4fSEJQCBKAfbBr5Wn58fiWMHGeIt/lHq+Lvy6uyW0HuGKAAAAAAAAAAAAAA1jfHpcLJtV/Rzoy/wCRRf3izhZyuwr4qM7c9zkBqMsAhCUA9OS8FLEYilh45nWqRhfkpvwpehXfoPmurRpmX1RTpVRDu0IU8PRjCEVGFKMYQgtSVkjz+KxEWaJuVf8AZbVu3nMUwxFarKb4Unf4LmR42/frvV6dc7fTsadFEUxlD5nF9oACUCUAhCUAAQJQhKAQJQAQl6cmRvWhzNvYmy9ybTpYqj/d0OOInK1LZT2bHAAAAAAAAAAAAAAeDL+DdfCV6KzyqUqih5/B8H22Pu3Vo1xL4uU6VEw4OmbTGCEoBCEto3taKllKDf8Ah06s108HgfCbK+KnK2sYaM7jp+V5+LHpb+C/M8by3cn+FHbP6j9t3CxvljjAXEAgSgSgEISgACBKEJQCBKACEoBksg071JT5Mbelv9mbXIlrO7VXwjLx/wCKeNqypinizp6dmgAAAAAAAAAAAAAAHFN2eSnhcdVglanVbq0dXBm7teiV16Ea9i5p0RLJv0aFcsEdXJCEgG271/8AMf7er96BWxfy+9ZwvzO50bK/jrzV8WeH5a+fT+P7lv4Xoz2vCY6ygSgECUISgACBKEJQCBIBCEoBAlsuTMN2Omk/Gl4Uul8Ww9lydhuYsRE752z/AL9oY+IuadecbnrL7gAAAAAAAAAAAAAAAYDdjueWOw/BjaNaleVCb0XemDep2XpSfEdrF3m6vs437XOU/dxrE0KlOcqVSMqc4O04SVnFmrExMZwy5iYnKXyAgG271/8AMf7er96BWxXy+9ZwvzO50bK/jrzV8WeH5a+fT+P7lv4Xoz2vCY60gECUISgACBKECBIEvyAISgECWYyXk13VSorWzwg9N9b6j0HJnJkxMXb0dkfuf1ChicTGWhR3yzB6FngAAAAAAAAAAAAAAAABicu7ncJjVavDw0rQrQfBqQ6Jca5ndHS3dqo3Ody1TXvafiN7B3+Sxfg8SnSvJelNX2FqMZxhWnB8JfL/AMYVvK6fqpfqGuRwRqk8WY3J7iqmCxPbEsRCquxzhwFBxfhOLve75JzvYiLlOWTpaw80VaWbOZY+cXmr4s8fy18+n8f3LZwvQnteAx1lAkISgH1wdFTqKDuk751pzK5awVim/ei3VOyc93Y53a5oomqGS7kU+VP3eo3PglnrVeXsqa3Xwg7kU+VP3eoj4HZ61Xl7GuV8IO49PlT93qHwOz1qvL2Ncr4Qncenyp+71D4HZ61Xl7GuV8IO41PlT2x6h8Ds9ary9jXK+EHcanyp7Y9Q+B2etV5eyddr4QncWlyp+71D4HZ61Xl7Gu18IFkWlyp7Y9QjkOx1qvL2Ndr4Q9WHwNKnnjFX5Tzv26C/YwNixOdFO3jO2XCu/XXvl6S25AAAAAAAAAAAAAAAAAAAAAAADD5Y+cXmr4s8xy18+n8f3K/hehPa8BkLQQIEoBYTcXeLaetaT6ouVUTpUzlJNMTGUv323V+kntZ313EdefF8czRwg7bq/ST2sa7iOvPinmbfCE7cq/ST2sa7iOvPiczb4Qnblb6Se1jXcR158U8zb6sJ25W+kntZGu4jrz4nM2+rDY8K26cG87cItvXmPYYaqarNEzvmI9GTcjKuYjjL6nd8AAAAAAAAAAAAAAAAAAAAAAAAAAAYfLPzi8xfFnmOWvn0/j+5X8J0J7XgMdaRhKAQJQgQJAlkaGSJyV5SUL/02u10m1Y5FuV06VdWj9ss/HbCnXjKYnKmM3lxuCnStfwovRJa9TXEUsZgLmGmNLbE7pdrN+m5u3vKUXdtOD+ap+ZD7qPc4T5Fv8Y9GLd6dXbL7FhzAAAAAAAAAAAAAAAAAAAAAAAAAAAxGWV4cXrjbY/3PNct0zF2mrjHpP8Alfwk/wAZhjjFW0AgShAgSAfTCNdkhfRwo32ljCzTF+iat2cer4uxOhOXBtB7hjPFlhrsEr8bjbpuv3M3laaYwtWf2y7c1jC587GTXDyDXbVg/mqfmQ+6j3OE/wDPb/GPRiXenV2y+xYcwAAAAAAAAAAAAAAAAAAAAAAAAAAPNj8N2SFl4yzx6ijj8JrFrKOlG2PbvdrNzQqz+jASi02mrNaU+I8fVTNMzTVGUw1ImJjOH5IShAgSAQJQhL3UMrVYrgu00tDd77TVscr37VOjOVXbvVa8JRVOe55sXi51XeTzLRFaEVMVjLuInOud26I3O1qzTbj+KYPDSqTUVo/qfJWs+cLhqsTciind9Z4R/u5N25FunOW0xSSSWZLMj3FMRTGUMWZz2qSgAAAAAAAAAAAAAAAAAAAAAAAAAAAB58Vg4VNKs+KS0/uU8VgbWIj+UbeMb3W3eqo3MXXyXVXi2mubM9jMG/yPfo6H8o8J8J912jFUTv2PHUozj40ZR6UzOrs3LfTpmO2JWKa6Z3S+dzjnD7QkQhKXGY+tPC1ZeLCT57WW1li3hL9zo0T4fudj4qu0U75e7D5Gm89SSitSzvbxGnY5EuVbbs5RwjbPtHmrV42mOhDL4ehCnHgwVl7XztnoLGHt2KdG3GUKFdyquc6n1Oz4AAAAAAAAAAAAAAAAAAAAAAAAAAAAAAAABi8dpZi43euWWIqaTztzev07n0w+k74fe+a2bwGg9Ng9zNvPYX3AAAAAAAAAAAAAAAAAAP/Z;" vertex="1" parent="1">
          <mxGeometry x="-102" y="27" width="60.97" height="38" as="geometry" />
        </mxCell>
        <mxCell id="ohZuWaNHun3vW7Tu6cD6-17" value="" style="shape=image;verticalLabelPosition=bottom;labelBackgroundColor=default;verticalAlign=top;aspect=fixed;imageAspect=0;image=data:image/jpeg,/9j/4AAQSkZJRgABAQAAAQABAAD/2wCEAAkGBw0QDhEODg8PDRANEA8QDQ0QEhAVEA0RFREXFhURFRMYKCgsGBolGxMWITIhJzU3Ly4uGB81ODMsNygtLisBCgoKDg0OGhAQGzAlHSMtKy0rLS4vKy0rLSsrKzctKystLy0tKystLS0rLS0tKy0tLS0rLSsrKy0rLS0tLS0tLf/AABEIALEBHAMBEQACEQEDEQH/xAAbAAEBAAMBAQEAAAAAAAAAAAAAAQUGBwQDAv/EAEoQAAIBAgEFCA0KBAYDAAAAAAABAgMRBAUhMVGRBgcSQVJhcdETFBUWIjJUcoGToaKxIzNTdJKys8HS4TQ1QoRDYoKDo8IXJET/xAAaAQEAAwEBAQAAAAAAAAAAAAAAAQQFAwYC/8QANhEBAAECAgUKBgEFAQEAAAAAAAECAwQREhQhMVEFEzJScYGRobHRFTNBYXLBIiNC4fDxNCT/2gAMAwEAAhEDEQA/AO4gAAAAAAAAAAAAAAYrLW6HCYNfL1PDavGjDwqkv9PEud2R1t2a7nRhyuXqLe+Wl5R3x6zusNQhTXFKq3KT/wBMbJbWXKMFT/dKnXjav7YYHE7sMpz04mUVqhGEbelK53jDWo+jjOIuz9XgqZZxsvGxeJf+9VtsufcW6I+keDnzlc/WfGXyeUcT5RX9bU6ydCnhBp1cZ8X6jlbFrRisTHorVV+ZHN0cI8E6dfGfGXrobqspQ8XF1n57U/vpnxNi3P8Aa+4v3I+rNYDfGxsLKtTpYiPHmdOb9KuvYcasHRO7Y604uuN8ZtwyHu0wOKahwnh6rzKnVsuE9UZ6H0aeYqXMPXRt3wt28RRXs3S2Q4O4AAAAAAAAAAAAAAAAAAAAAAAAAAAABru7XdC8FQSp27PXvGlfOoJeNUa47XWbW1zljDWecq27oV8Re5unZvlyKtVlOUpzk5zm7ynJ3lJ62zXiIiMoZUznOcslg9zeUK0FUpYapKDV4ybhHhLWlJq650cqr9umcpl0ps3KoziGNxOHqU5unVhKnOPjQmmpL0M+4mJjOHOYmJyl8SQAhCQCEJRgb/uA3XTVSOCxU3OM7Rw9WT8KEuKnJ8afE+J5uNWpYmxGWnT3ruHvzno1dzpJQXgAAAAAAAAAAAAAAAAAAAAAAAAAAAHL99KT7cpK+ZYeLS1N1J3+C2GnguhPazcb047GF3H4OnXyhQpVUpQcpSlF6J8CEpqPOrxWbVc7YiqabczDjYpiq5ES7UYzYaTvpYKm8NTxFkqlOqoKXHKEk7x586T26y5g6p0pp+injKY0Yq+rmBpM5CEgEISgEISKTWdNprOmtKa0NAd/yXiXVw9Gs8zq0qdRrU5QT/MxqoyqmGxTOdMS9R8voAAAAAAAAAAAAAAAAAAAAAAAAAADl2+n/G0vq0PxKhp4LoT2s3GdOOxqeBxdSjVhWpvgzpSUoviuuJ8zWb0lqqmKomJVaappmJh0zBb4mClTTrRq0aiXhQUeHFv/ACyXF02M2rB1xOza0acZRMbdjT92O6l46UYQi6dCk3KMZW4c5Wtw5W0WTaS53rzW7Fjm9s71W/f5zZG5rR3cACEJQCEJAIB3rc7/AAOF+rYf8KJj3OnPbLXt9COxkD4fYAAAAAAAAAAAAAAAAAAAAAAAAAAHLN9SSWNpXf8A80fxahp4LoT2szG9OOxpnDWtbS2qZwnDWtbRknOE4a1raDODhrWtpBnBwlrQSEJQhIBAIyEu97nf4HC/VsP+FEyLnTntlrW+hHYyB8PsAAAAAAAAAAAAAAAAAAAAAAAY7GZewNF8GriaMJLTDhpyXTFZzpTarq3Q51XaKdky8vfdkzyqn73UfWr3eD51i31jvuyZ5VT97qGr3OBrFvi/Et1WSnneJovpT6hzF3gc/a4p30ZI8oo/ZfUTzF3hJz1rjB30ZI8oofZfUOYu8JOetcYO+jJHlFD7L6hzN3hJz1rjCd9GSPKKH2X1Eczd4Sc9a4ww+6/L+TauAr06NalOpNQ4EYp3dqkW7ZtSZ1s2rkVxMw5XrtuaJiJcuNBQAIAISjA7xkGajgMNJ6I4Wg36qJiYm5FvTrq3RnLYs06UUxH2fXupS1T2LrMr4zh+E+Ee61qtf2O6tLVPYusfGcPwnwj3NVr+z7UcbSnmUs+p5mWrGPsXpypq28J2OddmunfD0FxyAAAAAAAAAAAAAAAAAD4Y7GUqFKVarJQhTV5SfwtxvisfVNM1TlD5qqimM5co3SbsMTipOFNyw9DQqcXac1rqSXwWbp0mpZw1NG2dssy7iaq9kbIa0WVZCACUAhCQCEJQCEJAIAISgEYHdclfyyh9To/hRPPcpfJu9ktrDb6O5jzw7YQJQDJ5Nx7uqc3e+aMnpvqZvcm8pTnFq7PZP6n9KeIsbNKllj0KiAAAAAAAAAAAAAAAAOXb5GW3VxHakH8nh38pbROq1/1Tt0uRp4S1o06c759Gbi7ulVoxuj1aaXFNCACUAhCQCEJQCEJAIAISgEAjA7tkn+WUPqdH8KJ53lL5N3sltYbfR3MceIbKAAlCBsOTsR2Smm9K8GXSuM9lyfiefsRVO+Nk9se+9lX7ehXl9HpLziAAAAAAAAAAAAAA8+PxUaNGpWloo051HzqMW7ew+qadKqI4vmqrRiZn6OD1qspylObvKcpSm9cpO7e1m5EZRlDEmc9svmEASgEISAQhKAQhIBABCUAgECSzeZJtvMktLfEiB36NDsWDjS+iowp7IqJ5zlGr/wCe5P2nzbeHjKumGFPFNcCUIECWSyHUtOUOUrrpT/f2G3yJdyuVW+MZ+H/fJTxlP8YqZk9KzwAAAAAAAAAAAAAGu74FdwybWtpn2OHolUjf2XLGFjO7CvipytS46azJAlAIQkAhCUAhCQCACEoBAIEhA2/e63OyxGIjiqkbUMNJSTeirVWeMVrSed9CXHmrYi7o06Mb5WMPa0qtKd0OnZZq2gocc37Fn+Njy3LN6KbMW/rVPlH+cm1hKM6tLgwx5looQIEoB6slytWhz3W1Mv8AJlWjiqPvnHk44mM7ctiPYskAAAAAAAAAAAAABqG+hO2AiuViKa92b/It4OP6ncq4yf6fe5UabMQCEJAIQlAPthMHWrS4NGlUrSWlU4Sk1020HzVVFO+X1TTNW6GWhuNyq1dYSfpnRXscjlrFvj6unMXOHo/XeVlbySXrcP8AqGsW+PqnmLnD0O8rK3kkvW4f9Q1i3x9TmLnD0TvJyt5JL1uH/URrFvj6nMXOHoneTlfySXrcP+oaxb4+pzFzh6HeTlfySXrcP+oaxb4+qeYucPR9cPuCyrJ2dCNLnnVp291s+ZxNuPqmMPcn6NmyLvaU4tTxtXstv8GleMHzObztdFjhXipnow70YWI6Ut5+RoU1GKjThBcGFOKSSS4opGdiMTRZp07k+8rtu3NU6NMMHiq7qScn6FqWo8dicRViLk11d32hq27cUU5Q+JWdECUAgS+2CfytPz4/Es4OcsRb/KPVzux/Tq7Gznt2MAAAAAAAAAAAAAA0/fSjfAQfJxFN+5NfmW8H8zuVcZ8vvcqNNmIQkAhCUA3DcRuP7b/9jEXjh02oQV08Q08+fiinmus7d9FiriMRofxp3rVixp/yq3OoUaVDD01CEYUacfFhFJL0JcZk38RRbjTuVZNKi3nsph56mU4/0xb527GRd5boj5dMz27PdZpws/WXy7qS5MdrK/xu51I833qscTupLkx9o+N3OrHmarTxTurPkx2sj43c6seadVp4ndWfJj7R8budSPM1SnindafJj7R8budSPM1Snid1p8mO1j43c6keadUp4vnPKlV6ODHnSz+0418s4irZGUd3v7PqMLRG946lSUneTcnrZm3LldyrSrnOVimmKYyh+D4fSEJQCBKAfbBr5Wn58fiWMHGeIt/lHq+Lvy6uyW0HuGKAAAAAAAAAAAAAA1jfHpcLJtV/Rzoy/wCRRf3izhZyuwr4qM7c9zkBqMsAhCUA9OS8FLEYilh45nWqRhfkpvwpehXfoPmurRpmX1RTpVRDu0IU8PRjCEVGFKMYQgtSVkjz+KxEWaJuVf8AZbVu3nMUwxFarKb4Unf4LmR42/frvV6dc7fTsadFEUxlD5nF9oACUCUAhCUAAQJQhKAQJQAQl6cmRvWhzNvYmy9ybTpYqj/d0OOInK1LZT2bHAAAAAAAAAAAAAAeDL+DdfCV6KzyqUqih5/B8H22Pu3Vo1xL4uU6VEw4OmbTGCEoBCEto3taKllKDf8Ah06s108HgfCbK+KnK2sYaM7jp+V5+LHpb+C/M8by3cn+FHbP6j9t3CxvljjAXEAgSgSgEISgACBKEJQCBKACEoBksg071JT5Mbelv9mbXIlrO7VXwjLx/wCKeNqypinizp6dmgAAAAAAAAAAAAAAHFN2eSnhcdVglanVbq0dXBm7teiV16Ea9i5p0RLJv0aFcsEdXJCEgG271/8AMf7er96BWxfy+9ZwvzO50bK/jrzV8WeH5a+fT+P7lv4Xoz2vCY6ygSgECUISgACBKEJQCBIBCEoBAlsuTMN2Omk/Gl4Uul8Ww9lydhuYsRE752z/AL9oY+IuadecbnrL7gAAAAAAAAAAAAAAAYDdjueWOw/BjaNaleVCb0XemDep2XpSfEdrF3m6vs437XOU/dxrE0KlOcqVSMqc4O04SVnFmrExMZwy5iYnKXyAgG271/8AMf7er96BWxXy+9ZwvzO50bK/jrzV8WeH5a+fT+P7lv4Xoz2vCY60gECUISgACBKECBIEvyAISgECWYyXk13VSorWzwg9N9b6j0HJnJkxMXb0dkfuf1ChicTGWhR3yzB6FngAAAAAAAAAAAAAAAABicu7ncJjVavDw0rQrQfBqQ6Jca5ndHS3dqo3Ody1TXvafiN7B3+Sxfg8SnSvJelNX2FqMZxhWnB8JfL/AMYVvK6fqpfqGuRwRqk8WY3J7iqmCxPbEsRCquxzhwFBxfhOLve75JzvYiLlOWTpaw80VaWbOZY+cXmr4s8fy18+n8f3LZwvQnteAx1lAkISgH1wdFTqKDuk751pzK5awVim/ei3VOyc93Y53a5oomqGS7kU+VP3eo3PglnrVeXsqa3Xwg7kU+VP3eoj4HZ61Xl7GuV8IO49PlT93qHwOz1qvL2Ncr4Qncenyp+71D4HZ61Xl7GuV8IO41PlT2x6h8Ds9ary9jXK+EHcanyp7Y9Q+B2etV5eyddr4QncWlyp+71D4HZ61Xl7Gu18IFkWlyp7Y9QjkOx1qvL2Ndr4Q9WHwNKnnjFX5Tzv26C/YwNixOdFO3jO2XCu/XXvl6S25AAAAAAAAAAAAAAAAAAAAAAADD5Y+cXmr4s8xy18+n8f3K/hehPa8BkLQQIEoBYTcXeLaetaT6ouVUTpUzlJNMTGUv323V+kntZ313EdefF8czRwg7bq/ST2sa7iOvPinmbfCE7cq/ST2sa7iOvPiczb4Qnblb6Se1jXcR158U8zb6sJ25W+kntZGu4jrz4nM2+rDY8K26cG87cItvXmPYYaqarNEzvmI9GTcjKuYjjL6nd8AAAAAAAAAAAAAAAAAAAAAAAAAAAYfLPzi8xfFnmOWvn0/j+5X8J0J7XgMdaRhKAQJQgQJAlkaGSJyV5SUL/02u10m1Y5FuV06VdWj9ss/HbCnXjKYnKmM3lxuCnStfwovRJa9TXEUsZgLmGmNLbE7pdrN+m5u3vKUXdtOD+ap+ZD7qPc4T5Fv8Y9GLd6dXbL7FhzAAAAAAAAAAAAAAAAAAAAAAAAAAAxGWV4cXrjbY/3PNct0zF2mrjHpP8Alfwk/wAZhjjFW0AgShAgSAfTCNdkhfRwo32ljCzTF+iat2cer4uxOhOXBtB7hjPFlhrsEr8bjbpuv3M3laaYwtWf2y7c1jC587GTXDyDXbVg/mqfmQ+6j3OE/wDPb/GPRiXenV2y+xYcwAAAAAAAAAAAAAAAAAAAAAAAAAAPNj8N2SFl4yzx6ijj8JrFrKOlG2PbvdrNzQqz+jASi02mrNaU+I8fVTNMzTVGUw1ImJjOH5IShAgSAQJQhL3UMrVYrgu00tDd77TVscr37VOjOVXbvVa8JRVOe55sXi51XeTzLRFaEVMVjLuInOud26I3O1qzTbj+KYPDSqTUVo/qfJWs+cLhqsTciind9Z4R/u5N25FunOW0xSSSWZLMj3FMRTGUMWZz2qSgAAAAAAAAAAAAAAAAAAAAAAAAAAAB58Vg4VNKs+KS0/uU8VgbWIj+UbeMb3W3eqo3MXXyXVXi2mubM9jMG/yPfo6H8o8J8J912jFUTv2PHUozj40ZR6UzOrs3LfTpmO2JWKa6Z3S+dzjnD7QkQhKXGY+tPC1ZeLCT57WW1li3hL9zo0T4fudj4qu0U75e7D5Gm89SSitSzvbxGnY5EuVbbs5RwjbPtHmrV42mOhDL4ehCnHgwVl7XztnoLGHt2KdG3GUKFdyquc6n1Oz4AAAAAAAAAAAAAAAAAAAAAAAAAAAAAAAABi8dpZi43euWWIqaTztzev07n0w+k74fe+a2bwGg9Ng9zNvPYX3AAAAAAAAAAAAAAAAAAP/Z;" vertex="1" parent="1">
          <mxGeometry x="66.03" y="27" width="60.97" height="38" as="geometry" />
        </mxCell>
        <mxCell id="ohZuWaNHun3vW7Tu6cD6-18" value="Python" style="text;strokeColor=none;fillColor=none;html=1;align=center;verticalAlign=middle;whiteSpace=wrap;rounded=0;fontSize=16;" vertex="1" parent="1">
          <mxGeometry x="72.51" y="-6" width="48" height="20" as="geometry" />
        </mxCell>
        <mxCell id="ohZuWaNHun3vW7Tu6cD6-19" value="Extraction" style="text;strokeColor=none;fillColor=none;html=1;align=center;verticalAlign=middle;whiteSpace=wrap;rounded=0;fontSize=16;" vertex="1" parent="1">
          <mxGeometry x="72.51" y="137" width="60" height="30" as="geometry" />
        </mxCell>
        <mxCell id="ohZuWaNHun3vW7Tu6cD6-20" value="Transfromation of Data" style="text;strokeColor=none;fillColor=none;html=1;align=center;verticalAlign=middle;whiteSpace=wrap;rounded=0;fontSize=16;" vertex="1" parent="1">
          <mxGeometry x="192" y="137" width="93" height="30" as="geometry" />
        </mxCell>
        <mxCell id="ohZuWaNHun3vW7Tu6cD6-21" style="edgeStyle=none;curved=1;rounded=0;orthogonalLoop=1;jettySize=auto;html=1;exitX=0.5;exitY=1;exitDx=0;exitDy=0;fontSize=12;startSize=8;endSize=8;" edge="1" parent="1" source="ohZuWaNHun3vW7Tu6cD6-20" target="ohZuWaNHun3vW7Tu6cD6-20">
          <mxGeometry relative="1" as="geometry" />
        </mxCell>
        <mxCell id="ohZuWaNHun3vW7Tu6cD6-22" value="" style="shape=image;verticalLabelPosition=bottom;labelBackgroundColor=default;verticalAlign=top;aspect=fixed;imageAspect=0;image=data:image/png,iVBORw0KGgoAAAANSUhEUgAAAOEAAADhCAMAAAAJbSJIAAAAh1BMVEX////u7u4AAADt7e3+/v7v7+/09PT5+fny8vL6+voEBAQTExPp6enZ2dmlpaUnJyc9PT0tLS3Q0NDj4+M3Nzd7e3uwsLAwMDB3d3eFhYWVlZWcnJzJycm7u7sNDQ14eHgdHR1ubm6pqamKiorCwsIYGBhNTU1BQUFXV1dlZWVHR0dVVVVgYGDwOe0lAAAQ0ElEQVR4nO1diWKqOhAFsmLjBnWtWte23vb/v+/NJEHZxA2F9jF9t33KMcxhQjKZCaPjpoRRJyYUfvjvhjg11q1h2DBsGFavW8OwYdgwrF63hmHDsGFYvW4Nw2sYksMvyRyK4jjmlw8fIb8akrGhdNIiya+GOIKDHH8l/wgU/rshmUtAiRu7CMRVSvxySNSD7S9KCTv2YZdAA+J3Q87YkDFC/F8OyX6EpT6S0zN+FaTOujUMG4YNw+p1axg2DO9g6DKekGwzkvP7IdUxVCLYDMaDmEwyMkjLxZC5b/wxWh1Dwduv3gNlYilWxpBS+eZ5rbhOrVPK3gBZtIAiLtb9Chnyt5tsc5m04GdlVgWPYhgXWI/k+fOdBzLUtpwixct0OQshKXEznHkWAgwX3nen8wYCvzvTjHRQzFHz6yLIZrNroXjeykXjYGzpnC7n1L0p1gYMQYlJDJYe+bNdxU/PDTkQ6oddNCHcit6YA0UnvoB9ZjTR0b10YFbZ+rqlEIrZFbgd9i+EKNZeemhB/DdgjFGnOoatQobMzt766OUQJjXDlmc6qpQV23ASQVB9lhDCEvGRiyEyXELDu3djxY2klffSAyQVo2Q5rVwCYcAQbkM1NYPqGOfFqJ9UzPCWVk4y9AgfGCtOqK/nxb/FECTkYuLhhIQOnPZu/hRDMF1IGN+AFYHiyonGoT/GUDExAIYH7+avMGQMZnxgpaQkLp96etbA4cbH43+CIWGaYQADL3TUgZkXB5QbP/wvMFTiE1vuCEbAimJzGG6E5fjrGRKOY6j3pRh4dYSJqZk0VtZ7+v0MieRzbPllzsEFcgmnG0NxSu+14TVpY6YOXlvZ+WlwdMJ/SGmhJJEMtEMPGCnCcKPn/qdkuQmTB8/7BOTW/LRLQuiYuMjfhxxJwpsbE90Y+Egg4/s9JsstRNRLS89PC+HTvrbaR+CYo9FwMxBcwit+9Ykyl+B82jiK04wFOQW5NT+Nhpp1NcXlJCC+hDGVbxb6Xty7XJGMvg/JcjvUNQz5Sci1+WliIQJvpI6Z6T3vY78CGa925vVEkqdluXmcoYb4NNEWpYlbAZeD2Z6AGsGA6cKNI2Mn8p3hi2cXwbHYlO407pmeUFqWW2YYAr9Ey9Q1gS8jwNDNXic4zvAYIVKx44kAOO9ZM8Zowv98KvmsqH6GIUD8JEzyWHBKnMhbSMC4HK+FPJ4IOyoZdJPxRbSp13dZTjTxWQzBhsE6Jm860milAz/rjBhIZ8YJN6Y0JxLaxw7fvkdJji1vxMLKGMJ87NwcB58Ll8R7KcwYeuYOZ9v5cDjXotMIfcIy48bzGDp8l7rkZxIVLRP6BdS3SjCMC4OOjMJD/Eg/725+GkPKu5HWWfHM2Jh3BP77UjioFiYlmGHoVsgQzvx+ay994ya8WGuG4I04fBhLdQ7GGUlnQxEC0/lkDQv6E720VgypSA4CIp2lyE7EANGzBVPSlfVneLaVW3T7XQzvgjQMG4apj5zPLEcM70o+XwNxDcPnZrkTUQyumCLx6EHW0RZuSoogYBemWEwXiSccUUc+L8vtpWJthHAWHkSp1KYpIWSYlGKIEkSSWAIuYlhhNJHwYN/tH2UUF3zVz0gR5OMNukVMF1Y5QyXZx61eW660tjyuSw1syMJdgboXMEq+XHjTBMPqbcgI+7zNWKdkyOt1HxIlhq+LlwIpPJiGLHYrUjOGTBKhgpi0MxKkpQjS5jpIVaNeSlypTGxNIwjPhBtEeiYrhEBrktVqpCGwBDL7ZHTUAWPTifCpQzlL7acphOg1f61smEa45/fTnIfUyoa3tHIN5O8zrF0v/aM2lEfJCeILmZQzEJbLkFaY5QbPdDaMyzwtw4wUQUJYWhx1OfRSQa5Vt7Qst6LTZDLlTvkKYWo96EKJZehXl+UWZJRWMhP4zkoBpENjugilGfInPcudl+WmDumXzFA/b2F1kTqKMSJ5+cNnZbmFsz/f9a6RwPHpMcxkGKoKs9zQkuiM30F0BP99vIrLeIVvJaUYsgnRpTvowgpyT8/LcieHbS5jPqgEHy3bSgGEOsnnnqqPl/rRqB49W5DcqYDq+zQp5yG1igj7mp3v+0L4WkQiuAjTN/HTUgihdbShiD8cQVnCQrnh3iKI3U9aH4bnQ/Z5O2Euh/wGhrXKWzQM/5cMLzjxXZAHM/RhGqCJcQ58GnAi330bemLZZwlhIUdi0/m9ENxP0/JGbsFwexdD3KOkjkkiyUPc1eqtYqmi1L4ERlSYzjXdBZkhw9d2GMtXMeHwEm2YWfyd3fNUrrRyTvgRlmVD+Mg2e8ZL0i2lScvuTkyecy9utGEmbUydN9xpfTidfcgzdlHz2LYKX14H0adKrSAX3j/pl5Xl1hUGntorzwuo86rcsrLcpobCst+NpN9NpnO7WXkwBEm+JtLER3WTcjFDz5vYfc2Mp5ZB4HWnrtuDIa6cv5TPsIV75c3clbeLIpV3eTBEzhaPYLjhBBc8OmvkJC9uaivJoyGSlMyQmF66kRZRSmLpHghjj2VYffnVhmHDsGHYMGwYNgzrztDsqGFOHsRst8Fn9S5imFfg5VaGxWljhXEZD7029xSESPSHXSlk2J7NZoHC0+k4CkJ8H/PTXJAwmG1nQUi4BCw+nX1YruLDXCZ7C9fAhjPQ8/bTJzIaRAzLynILa0NyEgJra1iX8bCz6o2Wu5f+v/06VsYKqQo523x9Lpe75fLzY7IlgsC7vjMcv2NWbYb5UKsbUXyun4/db2k6/SctxDIkJWW5OTUM/aLMspB+OElEc6bKEbZhwWn7exE/2Ns6kvucrs3LPRXHFLYQK/3mS0BF9kQgvh9ohkyUlOWmJm8/LYBAZ3JmyyhAZSMqvaG9cxUR6+4xetXCsiy7qcCda+FIP3/vEcWO+enQZMz3QsWjMPEUdhsZ9kSuLhlKl6SNLcMCCHVwUXqIFSHHhdedm9UO49ulfTf6A/91fCJDukJgCzfM4u59c1PNTSNrx+51TKewqaNt2MOaJyVluYtsaLNrQy8RDDNkdoGrty2qUTLQY4JKM1h58q0Br5irjDLCd75MLM9xTobFg3wb3p7lTjPMnjjoRg/RT4bz4c/SRou+BD4gytcmdNTdz4L2bPu9sMUuJJGuKYThjdoyetLZdNKWt3d8xVhGlzTDcuKlZxnylVG6vzaQ9oc12gwHSL7XRz/b9vNv9snlNoc7dGP69prLiKHpDt7WESxtoMoY0q3peK9t3CMC85+jvsw7Kw5jSPipWcx1GB4mDmqvxxz3yrZN7/4hzOrm/2iCn8rxCamLDeHOWaCec/usucN5YMbDbsAZCXs4nCxmeup3YJq3MXR8fJQJXTjJW4bKFi0jZs4Z591klTDEagHMDDFYSdEgqPIncHPtNzOMz2kbemBPqr0O33E3k810upnhbMI7xohv0k5daz2feEGR+s+1IYwkQ2OTYawVGXS2mCrCSc/9ttWQZvr0dgDnXE+XUhcz8bwfbm041uNMrzCx9FSGOOTr6k7gRenyKxriEg5OIwDB01Z86tk0x9dmq+PwGOtVxDgE8scYsW0+CyMpvsLZtyYMoZ8qs6ft57DhhFJdj4XhDKwY4cHIizh63c/OzNXqE2UuUcdMibb9ofXYCislP3ukgTkNZeVHD3QjQxwnXe2Rgz2nXkI+N23MCZmBkoemJuuP6aVjnef6xIfDa8NQts3otzncYhmIroWUSI99BTxytXAyhZ+XQK9Colu6sBb0k3spO8uQKLn2DrUwjOzeOLMM18ZLWyOrrfF+2g6tzUgD/xscGJ6CcOW0baY88s3B9TYjDfjfxm39RIbvpqA3rVMvBRua2X1yqhUs6ww3GZ9P/i0P3bQF3oC0/AdmWUIcR71q8nOHPtCGOWnjNMNElo+4bbPHe3CqFcBYh4W35yuzEsZJfaXztcyVQzOaglM7M/RtAeWTKWzD0C+CHCSVlcxNGzOzxmenIPxHK/gVyqg4VOzBNKrvKIdxzEm7DFb2wfvIzhwG4DvyW1vug+DciHVZ+Uld9PuujWKUleUujrUh6F1r3A2YnQAY9Df58aYNp6sdC07aUtkQCheznrkT9X4RCo761NyeAU730F/X/JQutjM+N5pIca+GXgENBTOTOJY7wp73bxrgdqPVHu+/IbcnV8Sfm265Rfti+dXQNDDd6rd7IasTQ5S2mev25BhwhJ6LZhnhmtDcWwOpounBbZubUQ8o2tPrGU9gpU07kCd1qcaGYARd/hfWR240Adh5zfvi0MKrGTqV7cNE8pk5unUcu2m9Y0afna6PvOX1YojB0LUeG81q0IX7TeioxqIFvokO1emJfsWlKR8o2ZdhSA6hIu1vRz4dOa1LVQy5+jD9tDdUGKWU808bd9OHbbV8b9I2Uc1wbNBLoG8Ziv3RFdi4NeulCGHbKNS236zXb192bxi6l/gz8EzwqT/pbOfrwav1Ud/MVKJleLDhImA1ZCj5tJXYQGgIjoW+zxx0euKb/Yx/+kHMQKpFHZ4M+2aRm1Inhi4zq+BDyFfflj1l9rn6JnwWrRAjB3ym9znZipcYnTIMp4LXkCH4DmK+OIZ99d89P4RtnHk/wR/+9LfxVvzDDs9l4LLTJ6qMITh0SszGL1EvhH/dNY/2TuPCuK2dbp3V0HPhanYIeZhWbIjN+8FCKfVjiO6z65Ng+mMGi9fxnDh+NFCiX+b728mHJdH/mgacJ3IKcC3eVvjU2mqOeYAaMlRYRB1YEhW2Q9UmGBbWHqdWH+tUK+nLMNT1LxRmgkmiqCvGGIXZrke4qqMNgYBenkm97Z5wndSN5gK0Foer4Ep0CCQG4eBPkiFIVD/RfcBYen+WGx2yZCupHBd8+AJIJCd1qSzLTS5opTxINVnus62UCKkiy31BK6VCKshy31ex/EpIFVnui1opEfL0LPejn87LQJ6eIW0YNgxrwbAVY6gTu/EnP3IKSzwS4sdnixJtuPGFEfAwU+JGh8RTIFxsd49g2O299oy8xgVf9jLyWMinDnmUzbBeT+dhEKH0+7A+TyDarX+vZTGEZew85xzP5WsfW028tyqNIaVisDsW4dy97HSkZbE8Wadzd/LIjRD9ZTqtxAl3/wKnKE18FUNYXYSJMpz4rXbevrRanmchbb0Fpb+NQ0JevJnhql5KUy56VAnL1o7LK1DF4xXq7oeE5jtKZPLregoT4QUMM2njY+jdNkz0yGMrlrO8aqU+boc6JrnvhTDML3p9ppJOgbZhKVnuDCRTsfymVq6A1KBi+Q2tXAOpR2XIRzJsqnv+foaNDRuG9WfY9NKnM8yrhnAXpAKGrcNmS4TINCTKb5cFqaaXxhhm/C1J0+rfB6meoZssu0KSSa/7IRUzdDJVSVLfans/pFKGGsZTkk2P3AcR9zIsznKn0sbQeda3BVvulL7wn/O93O7zGZo9VCOa6ciPqlhu8vpPDy6OBBfXq5u9Gc5XLPd5pgbfU2SfUxvrIRXLBVVsel6f0uUjIJxfr+4ZG54qKwrWl9JUwMCn8LLNMHNUlgeRQt6WK89R/7K0HrGZL+my/C/tO07dd0PO6VKo7o0M9dN3rqnflqubPVoOJHJynsrwUG4c4CRdcJ36yc5zL0R7qU9mGOs8ePVTqmG1Ezeu/p0QfbInMzwLOfWceemQyhjWB1Jn3RqGDcOGYfW6NQwbhqcYJlKs5PFfuv1oSDpGWXZ+unLITbG2XwVpGNZc/YZhw7D+6jcMG4b1V79h2DCsv/oNw/8Fw/8AmfQ121m2/zkAAAAASUVORK5CYII=;" vertex="1" parent="1">
          <mxGeometry x="372" y="36" width="71" height="71" as="geometry" />
        </mxCell>
        <mxCell id="ohZuWaNHun3vW7Tu6cD6-23" value="" style="endArrow=classic;html=1;rounded=0;fontSize=12;startSize=8;endSize=8;curved=1;" edge="1" parent="1">
          <mxGeometry width="50" height="50" relative="1" as="geometry">
            <mxPoint x="272" y="70.52" as="sourcePoint" />
            <mxPoint x="369" y="71" as="targetPoint" />
          </mxGeometry>
        </mxCell>
        <mxCell id="ohZuWaNHun3vW7Tu6cD6-24" value="" style="verticalLabelPosition=bottom;html=1;verticalAlign=top;align=center;strokeColor=none;fillColor=#00BEF2;shape=mxgraph.azure.sql_database;" vertex="1" parent="1">
          <mxGeometry x="361" y="-157" width="93" height="104" as="geometry" />
        </mxCell>
        <mxCell id="ohZuWaNHun3vW7Tu6cD6-25" style="edgeStyle=none;curved=1;rounded=0;orthogonalLoop=1;jettySize=auto;html=1;exitX=0.5;exitY=0;exitDx=0;exitDy=0;fontSize=12;startSize=8;endSize=8;" edge="1" parent="1" source="ohZuWaNHun3vW7Tu6cD6-22" target="ohZuWaNHun3vW7Tu6cD6-22">
          <mxGeometry relative="1" as="geometry" />
        </mxCell>
        <mxCell id="ohZuWaNHun3vW7Tu6cD6-26" value="" style="endArrow=classic;html=1;rounded=0;fontSize=12;startSize=8;endSize=8;curved=1;" edge="1" parent="1" source="ohZuWaNHun3vW7Tu6cD6-29">
          <mxGeometry width="50" height="50" relative="1" as="geometry">
            <mxPoint x="408.5" y="31" as="sourcePoint" />
            <mxPoint x="406.5" y="-48" as="targetPoint" />
          </mxGeometry>
        </mxCell>
        <mxCell id="ohZuWaNHun3vW7Tu6cD6-27" value="" style="shape=image;verticalLabelPosition=bottom;labelBackgroundColor=default;verticalAlign=top;aspect=fixed;imageAspect=0;image=data:image/png,iVBORw0KGgoAAAANSUhEUgAAAUwAAACYCAMAAAC4aCDgAAAAulBMVEX///9am/9a1/+Rvv/2+v/0+P/q8v+UwP/7/f9Nlf/n8P/w9v+y0f/S5P/Q4v+tzv/G3P9UmP+vr69Jk/+VvP/f6v+30P+av/91qv9dnf/D2P+pqanc5//n5+f09PS91P+7u7vj4+OCsf+Nt//IyMilxf9spf/Z2dm+vr7Pz89Aj/+Gs/9q2v/f9v/u+v/M8f993v+t6f9xp/+goKC/7v+V4//Y9P/H8P+YmJiiwvFC0/+e5f+NjY2cxf+/9rPtAAANxUlEQVR4nO2diYKiuhKGy26kWQYQEEREQBbRsfdlZo7n9vu/1k1AEVkUIfZxWv7pUSmBwGeFVEISADoRFXU+XVqq507Uurs9owYVZ6V9njNVszzRwTlP9U4A4G4Fqn8uUdpdOU36Vjx5X7UPk+I+S2mKd1qjU623kXCrgVPxKxKSdldqNn+cvCeKb5vqp3ByorFqJjz4AT/EGuu9jobxu5U1UlyNLbnbUvOPquwfyxwZo/wK1LBOchvxt0yJ9a7mHka5lMN6mwlSPZho9wwHNGdYDG+BpuFNeWdEH9+yEUwA9NtxNEUJFHAU+gX7AughBRYHDK+hP+hrBzdvBzN2HJQW0NiVLZ4wTMM0URLDvqfRnqaJaGllCWZ4VpiGSJnaClYDU6JDi3ZCyhccnfcs9OeZoXVo8/YwcVqUKYTgWxJhmCuaBuaVQslwOoAuhSY6Lq7O1bY5TB9d+nQDvw0p3wJroKFthrwOtISPwzm0eWuYFk4LTN1HJ8kQhol/K21koTNDJ+Gj3YtoK+28MIeA8lfIxJ/AQSgRxASmfn6YHE7L4cDnJaAJwxyPhjzK5iCFtAODkY7OMjTBq1E6toEJvrSKYXKjkLdMdNkc0fQXwPRGQwqnxfn6EJ2oThhmczWE2VLtYDZUB5OgOpgE1cEkqA4mQXUwCaqDSVAdTILqYBJUB5OgOpgE1cEkqA4mQeVgUlpOXNGkAVM0QcG0PZnrhWn+ZPelgpg3/WS4gommCqZtQ/gVw2R7+5JByJtUhsubWJpS86YOZgezjTqYBNXBJKgOJkF1MAkqD1OV98WCkDeh0ChvUlFolDd1MC1/mBNweZMPfMHUZwqm7XFfL8wz6HphWsNRTsDlTUPgC6Y+UzBtuyFdL8zumtlGXWlOUB1MgupgElQHc18UZw0cPRwN/ZVnYK1W/nAU6ubAog8Nw4nVwdyIFvWRN2dV3BYrFxW37cpzL3SE6tECHUy07iA0Eoa9Y8JUVdkLxVIvLbS0q8WW9n2Tilva8yYUGuVNfwlMIZyrdTDmkKqvYXGEQg5mv3h3p9Y9IKZ4D2j7210yTG4ks6dxzBBlx2Eux19zdZL21KYkNzzVYT+7w+M31ITvekNNaokycc/saVxvASTlj7iZ1Mx5XC9MMix7vfFul9cLc9w+k8eAvN0urxcm17gc3+PTyxRBVwuTYfpG6xJIVlfQwUQwZQ6Edjhl1dNA7O12X4CZr5QWG4fV0sbhgunSYarqkAc6HKuNsjuqA831PnCeWl0AiXMjJ9DypjlDF0w8VTBta1sXChOV5siz0Knzzko+qUKJK5M930TZ23xFnl0N8wxqCvP9/v6pear1QiOZZX2Tips6vN6mvegAxLjtaLySxD7+DTw29ulqmJyeF/BFEyXlLBLFFNba1lubwry/uXmug61cNbJ5ml/HQzO2c6IT+sacVXONPbgiqMpzww8dIb5NqDn+7upwIM7MXfpYFsT8rTJcncybijfUWlQnH+OX9c3NmkoXT9VJQTtuVxuvwoG2cQCGpzVLEBMJFkdvS2zeMsMV4pi9zF520P6wRvmb+rhB+qDg98364Ti7gk6vASWZuDf3/JGkmwMEMW78EgRxYOrhyDfGcmmj50XDjF3yfn0Ta32Dlxr4Zu1sXlDasJ5RbKtY/6Jhwk1e96dQ3Kirmyf6vd5nuW5SqHcwN9pC3EKtj3Cn5tn8e8F8jCGuXx4eXhKoTYrzi/DMfIj19UNXknI8KcITrh8Zmg9PT7/rwL0EmLSZF/BFE1UwUVAwbWOz02D+fk4y90uyuPHN+/ft98/r9fpfEjC/IJufQafBvN9cLzex5cN6v0Bn1jUvopfgmWcQUZi/4y9/HU+1g4n0XprNPz42y8/x8kf8+fHjANSLzOZ/FCXC77Z9YCX09Z/Kr9oUQIljfsAvVBN6YeDxZRMsvTwilOtDLnqRnqngv2gBygS9ouOzF1MIFmBPIZpGS3sRwQLDniqVezg5NKJ2oVHyiXpK3p930fzmczXNS4UZ2Ha0mM3AjlyACcDCBmW6BCVaxqhtxU7Wq9A+zNTBTwna33N1oh3TWjB3meo/zuYYF6NMXQRTsV1kCJbYNI0QzCn+9m0WMVAbpv223JxaNcynfHXyd7G6frNfLhWVhTmbRJtP/7Fn/lHcKUwC154w6BVgGSxtxZ3BW/AWzSBwZ5G7wOvVhMlMlEmCsxrmfYFZobq+xVxda9+HOUku/P81zPbibu2MJoqS4KzZBHefNMEVAR92TODvdmlGOM0Y598ftH9OMlJiTZbHGoeZpHGYgV/PuGD/d+eNNzsvPVAV4j8LaSKcf79nfipFTSb/HLltwaStwsy24oN98YkB5mnrp+vqVPmSVCeTz78fZolnLuyjN9SeM9l4G18+776L9VK5ddEzlUnwDbL53XSn2SRBWePu5K/n56R54/E9vWKmX6ZXzZeKG0R8JtVlgtL+FgVQZgGX5osjpfm+HjOh+s4RX1Lb+qa0RW6/NE9QfjeY9tviaJy5r4dMteeh1Hoc5luwSfTvz+Z7njndfmoCc4ft8RSYu3aFmp55qF/HBcHcqQnMXeXxV6m/ZtSmbu5JoZTH+z1gMi/3KbiP1PqRonwurwW1aYKbG9prj2XRH75/jvsgeXr+rtffCRMyxXnqhGmb8XsZMqxWrUasoL6aGsuJnmZqqmiGOvf6XWBmcnWS0X8V831erWDKAjs3NcP6ac5/Cp7mcIb0bTwTdo0f6+f3p/c0WDpUN2/T0i5b6mA8MCxV98ecYf4cf6NsDtm6eVaH6uatPDOUjYE0D2XWCQU1HPiy+Y2yOVPRBFd1xWzb0o4Kb1ZGEZIvmaGMh1eSL80pnuY0S7CQBEvj6H71uWREAuZLKctDrknmhppszI9GnCfBpDRRD31vjnuE5np7oNhh7g1DR+QOYCUBs4LlAde8vHtAnBkaPfVwV+9tT28vHJRPM0AA5kvlPaBK17wsmJpklPWTrVTM1NOLQAnAZO7jgvwpLca3n++be+bX1c2FoXzq7ABbor1R7ql7ZEKj9TMO2B83MHF1/PFj3SY0+irP1HtthhXK7Hjv6WZEYDKb8PzfbLnzeOBKfSEwB3J1gFpTbC/zoDqig6rieiSRvkZfks1HRBJR9XSHZEeoxVWhGutdhGeKhNJQ08MmC/N9vV5/HF/tMmAeqISepN3cFRc6dvIrsjlFZEg7qn6le7xQmF9SANFjAr7JznczUp0KU3GV2Z4h6RmWU1Cx9VYXAdPhQWLb4UQhqgNa82zuojxo465rDOZhgzsDmwEGvcRW9H/mQvyO12sK8yuyuYTLYWeuNgnZY5Ky+moChD/TZyI3gfknsJcT+BO9gRKBEiwDd7pUpmg5mkC0DNDrhFGWC/gfWqMhzK/wTAnF3AgnrRsnz5AWj2r3dB4oCX1qBVMBO3izFVhOgwACG3diXOIOjPhfsFTsABG2N8sNYX6JZ+KmPHWFz9SSPFmtVz2PJ+/rrXQNHaQZTwrWAqaCu9Qq9sSeIJh2FAW2i14RzAm2A7LbLihTzLgFzK/xzBgOyxoSrmNTgjPyxnJ2VsmU3960kqaF+1clU/7hr1vAnAKgEgjBmwFmiV5giT+i5fjfbAaRjQxLiJebwhySCQIz1ZMKmL0kz859PZl6k6KtgSOFQ98zjHmsV8Pzh6HkDCw6Pmpe0P3s3CEtYBJRjbnghgR8U1azjz6vhLklipB6I8kUOL7k6BheE01p6I0Ll4O/ACaI45ZBNSps9ybRPAxzi1TeNqyPx/N4mpjX+Xi8bXovbTk+A8zDg2dyqjd/pug1m4gnpsKyfq61sQ7MItvjK50BZnR8lZ3qzuzajyeBORUodi7fLKTQAGYtkYK5QKHR0gXbDVCBEwQLmC2mx7c6bc5hS1r11IOz8GQwxpOj+Hpxjly4eJhuFKC4PJopEEUKvEEwfZtWxel7OnU27L6gj4wxq6ZRyx7ATeCiymMvdKzKKcYvHKYyxbE6hjmLcFC5nClHBh5u1HCe9rhADYcrz0CFQkwRlRKGtxqFkilq1ZOKJ7pwmLayYFwUWkbuInJR3WhpB4tlnQ0v4QkClwZzKxsWJxXmHcwDmga1ip2dOpgE1cEkqA4mQXUwCaqDSVAdTILqYBJUB5OgOpgE1cEkqA4mQXUwCaqDSVAdTIK6CJgOof6ZatoR+4phwvEhWXXE7p7fdM0wwW//0Lu9fg5XDRO0lk9wktVV9pivGyY6/7DXaExV3D1zHNL7O7tymIBH+72e2tMB31o2iuP9OphYjBV3bDve1UFO+ncNy7s5dDBTMdwAP/db3jxwaP9ZQfFTh3rz1UgXq4+yg1kUz1mi6ehSGIajEXqRdMcULe5YJ4cOJlF1MAmqg5lqOqvVLcWu7nDRwUz1FuFpmzHUg7sJosohYx3MVAoel7N0bXeCXpH7RYup7br2NAJ3tohmbjRdJBjdqj10MFPFk97PAjxP+wz76CKCdJ72+OPb8g1fCNzKWQk6mKnwCCd7AW40wyOZkGHquhA/QWASzZLxT1iL6j10MFO5CuLkLvGTF/ArLBdTQNkc3CCYTQFlcxtPem9PlEqcHUyCui6YznlPS7srNTtOqZmUyn/Cz9LWA2Ia/ADt9py/F/9pltq123OeGBX+KDMPPo9Xf5uLu7NQErd359Nt6VkhiWdNVSqPLn6cNdE4i1P0+dQvPSks5oypVjpg/4yJUgD/B97xBrej9xS0AAAAAElFTkSuQmCC;" vertex="1" parent="1">
          <mxGeometry x="-172" y="232" width="652" height="298.5" as="geometry" />
        </mxCell>
        <mxCell id="ohZuWaNHun3vW7Tu6cD6-30" value="" style="endArrow=classic;html=1;rounded=0;fontSize=12;startSize=8;endSize=8;curved=1;" edge="1" parent="1" target="ohZuWaNHun3vW7Tu6cD6-29">
          <mxGeometry width="50" height="50" relative="1" as="geometry">
            <mxPoint x="408.5" y="31" as="sourcePoint" />
            <mxPoint x="406.5" y="-48" as="targetPoint" />
          </mxGeometry>
        </mxCell>
        <mxCell id="ohZuWaNHun3vW7Tu6cD6-29" value="" style="shape=image;verticalLabelPosition=bottom;labelBackgroundColor=default;verticalAlign=top;aspect=fixed;imageAspect=0;image=data:image/png,iVBORw0KGgoAAAANSUhEUgAAAOwAAADWCAMAAADl7J7tAAAAY1BMVEX///8AAADh4eHq6uqjo6OxsbElJSVpaWnk5ORKSkpFRUWmpqb39/dcXFy3t7eQkJDGxsY+Pj45OTmXl5fAwMAKCgofHx94eHhYWFjV1dUtLS2KiorPz8+dnZ0bGxusrKx8fHxLdBobAAAClUlEQVR4nO3c61KrMBhGYYLYg0CtJ1rP3v9V2h862z2TGAlJE17W+k3n45ky5SCm6ofV6IZjNc+2JqCr3HsdGFiwYOcVWLBg5xVYsGDnFViwYOcVWFXsTQj2NvdeB7ZrvmrvfMTr9nvbXe69ntyFD7vJvYcR82Lr3HsYMbBgBQILViCwYAUCC1YgsGAFAgtWILBgBQILViCwYAUCC1YgsGAFAgtWILBgBQILViCwYAUCC1YgsGD9bWx1ti0766axTM4iYmvr5y9tm17mOYjAgvUGFixYsHED+7O/X9dspmKTX0J5sf/+f9ZTez0V++dR/4293z9exMJObQQ2vKfnl+VgT729+r9fGeyJ21jvsDSxxmw9v+dSWPNwvyCsMe9Lwv6qlcOaX45kPezKfSGmhzXrJWHNfklY5/JG3ZB0bhas+6sNWi1pRDmwvQu7Tjs3C9a47gneE8/NgnUtXWV/mBKvLNiD6zi+TTs3C3brwrZp52bBPrnubLu3pHOzYB+cTy2apHOzYJ0/x1WX9FRbGLbapxxbGrayP/GNU3HY6pBubHnYhBeNBWKrj1RjS8Qmu0YuElvVxyRjy8SeTkEpTrilYqvq5SP6bUG52NPlVL17PayD6qdi+4mjRmMndMa/vNtHnRN7xncqvE8cwMYMLFiwYEeNApuoRWE76+t2VkFt3dT3GtOPz2fHnjGwYAUCC1YgsGAFAgtWILBgBQILViCwYAUCC1YgsGAFAgtWILBgBQILViCwYAUCC1YgsGAFAgtWILBgBQILViCwYAUCC1YgsKrY/ItyJG/XtF9512G7+96yca0kWnpBi/zc5N7rwK5CsM6VRAsPLFiw8wosWLDzCixYsPMKLFiw8wqsKvY4rEY39J8eY0v7uiAYUAAAAABJRU5ErkJggg==;" vertex="1" parent="1">
          <mxGeometry x="378.28" y="-29" width="58.45" height="53" as="geometry" />
        </mxCell>
      </root>
    </mxGraphModel>
  </diagram>
</mxfile>
